<?xml version="1.0" encoding="UTF-8"?>
<svg version="1.1" xmlns="http://www.w3.org/2000/svg" width="419" height="455">
<path d="M0 0 C138.27 0 276.54 0 419 0 C419 150.15 419 300.3 419 455 C280.73 455 142.46 455 0 455 C0 304.85 0 154.7 0 0 Z " fill="#FBFCFB" transform="translate(0,0)"/>
<path d="M0 0 C1.03511719 0.00193359 2.07023437 0.00386719 3.13671875 0.00585938 C4.20792969 0.01810547 5.27914062 0.03035156 6.3828125 0.04296875 C7.44628906 0.04361328 8.50976562 0.04425781 9.60546875 0.04492188 C16.68819334 0.08451475 23.50664348 0.14340681 30.1328125 2.91796875 C31.38578125 3.44197266 31.38578125 3.44197266 32.6640625 3.9765625 C37.97979246 6.32044892 43.25062836 8.75843859 48.5078125 11.23046875 C48.5078125 11.89046875 48.5078125 12.55046875 48.5078125 13.23046875 C49.1678125 13.23046875 49.8278125 13.23046875 50.5078125 13.23046875 C50.5078125 13.89046875 50.5078125 14.55046875 50.5078125 15.23046875 C51.0646875 15.33359375 51.6215625 15.43671875 52.1953125 15.54296875 C54.9847226 16.37225283 57.1217189 17.57345931 59.5078125 19.23046875 C59.5078125 19.89046875 59.5078125 20.55046875 59.5078125 21.23046875 C60.21164063 21.47023437 60.91546875 21.71 61.640625 21.95703125 C64.98154905 23.4408749 67.50442201 25.35509073 70.3828125 27.60546875 C75.13958429 31.27998645 75.13958429 31.27998645 80.2578125 34.41796875 C84.31022856 36.67797001 87.86044793 39.37633184 91.5078125 42.23046875 C92.08015625 42.65457031 92.6525 43.07867187 93.2421875 43.515625 C97.73902526 46.97729961 99.93121634 50.1060075 100.96484375 55.70703125 C101.46479955 61.72344851 100.42422714 65.07094225 96.6953125 69.85546875 C93.3300111 73.74180953 91.44487321 75.09030184 86.21484375 75.46875 C75.11978918 75.68019036 69.31890872 73.595564 60.6640625 66.8125 C57.4732118 64.47138671 54.05635561 62.56192564 50.609375 60.625 C48.5078125 59.23046875 48.5078125 59.23046875 46.5078125 56.23046875 C44.84964466 55.54293574 43.18321914 54.87485592 41.5078125 54.23046875 C41.1778125 53.57046875 40.8478125 52.91046875 40.5078125 52.23046875 C38.1978125 52.23046875 35.8878125 52.23046875 33.5078125 52.23046875 C33.09034642 55.10411666 33.09034642 55.10411666 33.5078125 58.23046875 C35.93453817 60.02015901 35.93453817 60.02015901 38.5078125 61.23046875 C38.5078125 61.89046875 38.5078125 62.55046875 38.5078125 63.23046875 C39.0646875 63.33359375 39.6215625 63.43671875 40.1953125 63.54296875 C42.9847226 64.37225283 45.1217189 65.57345931 47.5078125 67.23046875 C47.5078125 67.89046875 47.5078125 68.55046875 47.5078125 69.23046875 C48.0646875 69.31296875 48.6215625 69.39546875 49.1953125 69.48046875 C52.20139104 70.45541314 54.05553078 72.25668102 56.5078125 74.23046875 C58.16598034 74.91800176 59.83240586 75.58608158 61.5078125 76.23046875 C62.1059375 76.70484375 62.7040625 77.17921875 63.3203125 77.66796875 C67.96036418 80.98229138 73.10106979 82.2140584 78.6328125 83.10546875 C83.47206861 83.99671683 85.85069606 85.88459626 89.5078125 89.23046875 C92.44555676 91.01739419 95.46039391 92.63903904 98.5078125 94.23046875 C98.5078125 94.89046875 98.5078125 95.55046875 98.5078125 96.23046875 C99.04148438 96.32585937 99.57515625 96.42125 100.125 96.51953125 C103.25631184 97.4537915 105.81091344 98.96224989 108.6328125 100.60546875 C109.68726563 101.21132813 110.74171875 101.8171875 111.828125 102.44140625 C114.5078125 104.23046875 114.5078125 104.23046875 116.5078125 107.23046875 C117.6834375 107.69453125 117.6834375 107.69453125 118.8828125 108.16796875 C121.92281606 109.39844638 123.51813381 110.62858123 125.5078125 113.23046875 C125.2578125 115.48046875 125.2578125 115.48046875 124.5078125 117.23046875 C121.5378125 117.72546875 121.5378125 117.72546875 118.5078125 118.23046875 C118.5078125 118.89046875 118.5078125 119.55046875 118.5078125 120.23046875 C117.7446875 120.58109375 116.9815625 120.93171875 116.1953125 121.29296875 C111.99976431 123.38075345 108.1216907 125.96957732 104.19140625 128.51171875 C101.65606366 130.13551895 99.09669537 131.69367181 96.5078125 133.23046875 C95.87931396 133.6063916 95.25081543 133.98231445 94.60327148 134.36962891 C92.40744673 135.68193102 90.20785959 136.98775946 88.0078125 138.29296875 C87.26144531 138.73962891 86.51507813 139.18628906 85.74609375 139.64648438 C82.07987506 141.81701562 78.54638088 143.812162 74.5078125 145.23046875 C74.5078125 145.89046875 74.5078125 146.55046875 74.5078125 147.23046875 C72.0078125 149.73046875 72.0078125 149.73046875 69.5078125 152.23046875 C68.21261255 154.39667419 68.21261255 154.39667419 67.5078125 156.23046875 C66.1878125 155.90046875 64.8678125 155.57046875 63.5078125 155.23046875 C63.5078125 154.57046875 63.5078125 153.91046875 63.5078125 153.23046875 C62.239375 152.85921875 62.239375 152.85921875 60.9453125 152.48046875 C57.12353776 151.09073248 53.98913187 149.31926037 50.5078125 147.23046875 C50.5078125 146.57046875 50.5078125 145.91046875 50.5078125 145.23046875 C49.1878125 144.90046875 47.8678125 144.57046875 46.5078125 144.23046875 C46.5078125 143.57046875 46.5078125 142.91046875 46.5078125 142.23046875 C45.81300781 141.98296875 45.11820312 141.73546875 44.40234375 141.48046875 C41.06756921 140.04035019 38.22026735 138.23971837 35.1953125 136.23046875 C34.12667969 135.52921875 33.05804688 134.82796875 31.95703125 134.10546875 C30.74466797 133.17734375 30.74466797 133.17734375 29.5078125 132.23046875 C29.5078125 131.57046875 29.5078125 130.91046875 29.5078125 130.23046875 C28.77433594 129.95976562 28.04085937 129.6890625 27.28515625 129.41015625 C24.61712665 128.27690036 22.45249057 126.99454315 20.0703125 125.35546875 C17.44562162 123.55617982 14.82713317 121.80189288 12.1328125 120.10546875 C9.5078125 118.23046875 9.5078125 118.23046875 8.0703125 116.10546875 C5.64968004 113.20070979 3.1561638 112.9481772 -0.4921875 112.23046875 C-7.45405925 111.78844515 -13.5681072 111.93896169 -19.21875 116.3671875 C-21.70625993 118.59893936 -24.12448834 120.87247327 -26.4921875 123.23046875 C-30.52746196 121.67559235 -32.56727305 119.05225794 -35.2421875 115.73046875 C-36.04140625 114.75078125 -36.840625 113.77109375 -37.6640625 112.76171875 C-39.4921875 110.23046875 -39.4921875 110.23046875 -39.4921875 108.23046875 C-40.4821875 107.90046875 -41.4721875 107.57046875 -42.4921875 107.23046875 C-42.8015625 106.13734375 -43.1109375 105.04421875 -43.4296875 103.91796875 C-44.14737865 100.25049161 -44.14737865 100.25049161 -46.39453125 98.4375 C-55.02870857 89.35312349 -56.03578466 69.98393311 -55.87890625 58.2421875 C-55.378795 50.9680062 -52.93455756 44.05074124 -50.4921875 37.23046875 C-50.00878906 35.86535156 -50.00878906 35.86535156 -49.515625 34.47265625 C-44.6546909 22.3414555 -33.35563637 10.70757197 -21.4921875 5.23046875 C-18.71471788 4.3321064 -15.94631171 3.57637649 -13.10546875 2.90625 C-10.49404909 2.30680659 -10.49404909 2.30680659 -8.17211914 1.20263672 C-5.25887259 0.14583179 -3.08862641 -0.01357696 0 0 Z " fill="#12615F" transform="translate(106.4921875,210.76953125)"/>
<path d="M0 0 C3.30092548 1.15629288 6.02491799 2.84924139 8.99609375 4.69921875 C10.57390625 5.28703125 10.57390625 5.28703125 12.18359375 5.88671875 C25.95330626 11.64214915 37.04387856 24.30194984 42.99609375 37.69921875 C48.36985909 52.11355401 47.77574805 66.75857688 44.99609375 81.69921875 C44.33609375 81.69921875 43.67609375 81.69921875 42.99609375 81.69921875 C42.9703125 82.27929688 42.94453125 82.859375 42.91796875 83.45703125 C42.51415659 89.01862602 41.40971009 92.1477303 37.99609375 96.69921875 C37.28898697 98.34913457 36.61665386 100.01484131 35.99609375 101.69921875 C34.96159122 104.137689 34.1015096 105.59743793 32.18359375 107.44921875 C30.2108534 109.47832311 28.99431323 111.23030842 27.55859375 113.63671875 C25.39776661 117.19457612 23.02193883 119.81091208 19.99609375 122.69921875 C18.46377573 124.35533266 16.94404482 126.0231372 15.43359375 127.69921875 C14.68980469 128.52421875 13.94601562 129.34921875 13.1796875 130.19921875 C11.04307448 132.64543043 9.01539163 135.15592585 6.99609375 137.69921875 C4.93359375 140.01171875 4.93359375 140.01171875 2.99609375 141.69921875 C2.00609375 141.69921875 1.01609375 141.69921875 -0.00390625 141.69921875 C-0.35582031 140.98636719 -0.70773437 140.27351562 -1.0703125 139.5390625 C-8.10443625 125.89322973 -21.08355663 114.38275947 -35.87890625 109.63671875 C-36.86632812 109.31574219 -37.85375 108.99476563 -38.87109375 108.6640625 C-39.90492188 108.34566406 -40.93875 108.02726562 -42.00390625 107.69921875 C-43.08671875 107.33828125 -44.16953125 106.97734375 -45.28515625 106.60546875 C-49.80076063 105.50502735 -53.99640065 105.27587732 -58.62890625 105.26171875 C-59.50466309 105.25785156 -60.38041992 105.25398438 -61.28271484 105.25 C-69.11723632 105.3881293 -74.91025266 107.3777756 -82.00390625 110.69921875 C-82.66390625 110.69921875 -83.32390625 110.69921875 -84.00390625 110.69921875 C-84.24238281 110.10753906 -84.48085937 109.51585937 -84.7265625 108.90625 C-86.28023764 106.22176543 -87.87100504 105.10991572 -90.44140625 103.38671875 C-91.33988281 102.78085937 -92.23835938 102.175 -93.1640625 101.55078125 C-96.79865791 99.18104504 -100.45413165 96.84661892 -104.12109375 94.52734375 C-107.25905932 92.53741437 -110.38930946 90.53808293 -113.50390625 88.51171875 C-114.48359375 87.87878906 -115.46328125 87.24585938 -116.47265625 86.59375 C-118.86728815 84.80147149 -120.37338658 83.18355784 -122.00390625 80.69921875 C-116.01649376 74.74631584 -116.01649376 74.74631584 -112.31640625 74.57421875 C-110.00390625 75.69921875 -110.00390625 75.69921875 -108.19140625 77.57421875 C-101.32622199 84.24325489 -90.95303087 83.38426169 -82.00390625 83.69921875 C-82.00390625 83.03921875 -82.00390625 82.37921875 -82.00390625 81.69921875 C-81.40964844 81.41949219 -80.81539062 81.13976562 -80.203125 80.8515625 C-71.12284846 76.45970246 -62.84565243 71.18039308 -54.84765625 65.05078125 C-50.95745554 62.19906632 -46.84519317 59.47382466 -42.00390625 58.69921875 C-42.00390625 56.38921875 -42.00390625 54.07921875 -42.00390625 51.69921875 C-47.84679936 51.35969447 -47.84679936 51.35969447 -53.00390625 53.69921875 C-53.33390625 54.68921875 -53.66390625 55.67921875 -54.00390625 56.69921875 C-55.9375 57.83984375 -55.9375 57.83984375 -58.44140625 58.94921875 C-65.17924707 62.15403702 -71.71186957 66.05493847 -76.81640625 71.57421875 C-81.09371288 75.72931662 -87.61651813 75.14800612 -93.32714844 75.22705078 C-97.72603129 75.1138997 -100.39289174 74.41574684 -103.75390625 71.57421875 C-108.73841852 66.14543473 -110.56397987 61.52766965 -110.375 54.1796875 C-109.79844505 50.32587283 -108.21452065 47.87697694 -106.00390625 44.69921875 C-105.34390625 44.69921875 -104.68390625 44.69921875 -104.00390625 44.69921875 C-104.00390625 44.03921875 -104.00390625 43.37921875 -104.00390625 42.69921875 C-102.03026906 40.93704269 -100.52904199 39.82652438 -97.94140625 39.19921875 C-95.95745461 38.86454516 -95.95745461 38.86454516 -94.78515625 37.4609375 C-92.28270909 34.98592946 -89.43323654 33.03572887 -86.56640625 31.01171875 C-85.9518457 30.57472656 -85.33728516 30.13773438 -84.70410156 29.6875 C-79.6507975 26.11251471 -74.51643977 22.67531013 -69.33203125 19.29296875 C-66.94741996 17.76543386 -66.94741996 17.76543386 -65.00390625 15.69921875 C-64.01390625 15.69921875 -63.02390625 15.69921875 -62.00390625 15.69921875 C-62.00390625 15.03921875 -62.00390625 14.37921875 -62.00390625 13.69921875 C-58.85258553 11.41283499 -55.40027425 9.59595246 -52.00390625 7.69921875 C-51.20082031 7.23773438 -50.39773438 6.77625 -49.5703125 6.30078125 C-43.78893779 3.16801663 -38.12657117 1.58258947 -31.69140625 0.27734375 C-21.48148856 -1.91897575 -10.44512002 -2.55244701 0 0 Z " fill="#12615F" transform="translate(324.00390625,211.30078125)"/>
<path d="M0 0 C1.32845837 0.35226019 2.66072647 0.69139782 4 1 C4 1.66 4 2.32 4 3 C4.680625 3.2475 5.36125 3.495 6.0625 3.75 C12.59238425 6.52867415 17.35626664 9.8861077 22.25 14.9375 C23.0234375 15.70610352 23.0234375 15.70610352 23.8125 16.49023438 C28.04463153 20.78235746 31.95858182 25.46867511 32.58203125 31.69140625 C31.1802836 37.25135835 25.16151332 41.35732471 21 45 C19.78957031 46.11761719 19.78957031 46.11761719 18.5546875 47.2578125 C13.35172065 52 13.35172065 52 11 52 C11 52.66 11 53.32 11 54 C8.97270858 55.72334968 6.9348277 57.33833786 4.8125 58.9375 C-0.82204363 63.2594141 -6.29606989 67.71402038 -11.6472168 72.38256836 C-14.62014793 74.94676344 -17.63190357 77.00072522 -21 79 C-22.02235171 79.97713714 -23.02461284 80.97597857 -24 82 C-25.16685217 82.92256686 -26.35489285 83.81896181 -27.5625 84.6875 C-28.16191406 85.12449219 -28.76132812 85.56148438 -29.37890625 86.01171875 C-31 87 -31 87 -33 87 C-33.33 87.99 -33.66 88.98 -34 90 C-35.98969233 91.02035504 -37.99300751 92.01410895 -40 93 C-42.50203363 94.66660884 -44.94453202 96.40638056 -47.39453125 98.1484375 C-49.9127348 99.93798545 -52.44484702 101.70114805 -55 103.4375 C-55.721875 103.93121094 -56.44375 104.42492187 -57.1875 104.93359375 C-59 106 -59 106 -61 106 C-61.37125 106.9590625 -61.37125 106.9590625 -61.75 107.9375 C-63 110 -63 110 -64.59375 110.625 C-67.97919817 111.15260231 -71.3344523 111.10446798 -74.75 111.0625 C-75.44738281 111.05798828 -76.14476562 111.05347656 -76.86328125 111.04882812 C-78.57555803 111.0371002 -80.28779033 111.01916653 -82 111 C-82 110.34 -82 109.68 -82 109 C-82.886875 108.938125 -83.77375 108.87625 -84.6875 108.8125 C-88.7830791 107.80792399 -90.13448324 106.01246634 -93 103 C-95.55183404 101.79549696 -95.55183404 101.79549696 -98 101 C-99.485 100.01 -99.485 100.01 -101 99 C-101 98.34 -101 97.68 -101 97 C-102.0828125 96.62875 -102.0828125 96.62875 -103.1875 96.25 C-106.26894735 94.88046785 -108.4060245 93.14002978 -111 91 C-111.845625 90.505 -112.69125 90.01 -113.5625 89.5 C-116 88 -116 88 -117.8515625 86.08203125 C-120.0575061 83.94427136 -122.12594714 82.65558479 -124.8125 81.1875 C-129.00894451 78.75343894 -132.12487836 76.10594351 -135.4296875 72.5859375 C-137.69148018 70.30163942 -140.29786052 68.72936926 -143 67 C-150.31041896 61.58537999 -157.93607506 55.82191555 -164 49 C-164 48.34 -164 47.68 -164 47 C-164.680625 46.79375 -165.36125 46.5875 -166.0625 46.375 C-171.98457946 43.6029628 -176.4817454 38.63715603 -181 34 C-183.7405311 31.22569474 -186.51775466 28.50528604 -189.3671875 25.84375 C-190.53664206 24.72935944 -191.70591043 23.61477346 -192.875 22.5 C-193.48085937 21.94441406 -194.08671875 21.38882812 -194.7109375 20.81640625 C-196.30829454 19.27350457 -197.73618822 17.82643991 -199 16 C-199.04227643 11.11707239 -196.32113866 8.39661909 -193 5 C-188.6394894 2.33524352 -183.95017558 2.80587547 -179 3 C-178.67 3.66 -178.34 4.32 -178 5 C-176.30385207 5.96447628 -174.60573562 6.92577824 -172.89453125 7.86328125 C-170.01343079 9.59194152 -167.57772043 11.85189964 -165 14 C-163.8477785 14.6913329 -162.68042727 15.35801324 -161.5 16 C-157.95834092 17.92616547 -155.09746465 20.41877946 -152 23 C-150.26730401 24.03961759 -148.50296956 24.99839094 -146.7265625 25.9609375 C-144.93322014 27.04018879 -143.44703815 28.24644347 -141.875 29.625 C-139.23719079 31.80405978 -137.22115934 32.95786021 -134 34 C-134 34.66 -134 35.32 -134 36 C-132.9171875 36.0928125 -132.9171875 36.0928125 -131.8125 36.1875 C-128.80154819 37.05733052 -127.72244945 38.13356503 -125.65625 40.3984375 C-121.02303238 44.87867152 -115.35147266 48.43235156 -110 52 C-110 52.99 -110 53.98 -110 55 C-109.34 55 -108.68 55 -108 55 C-107.649375 55.9075 -107.29875 56.815 -106.9375 57.75 C-104.54687653 61.76007809 -102.43360866 63.72712525 -98 65 C-89.71696328 65.89398414 -82.76383252 66.14639431 -76 61 C-71.28571429 58 -71.28571429 58 -68 58 C-68 57.34 -68 56.68 -68 56 C-66.47119141 54.85498047 -66.47119141 54.85498047 -64.3515625 53.6171875 C-63.21460938 52.95009766 -63.21460938 52.95009766 -62.0546875 52.26953125 C-61.25289062 51.80933594 -60.45109375 51.34914063 -59.625 50.875 C-58.8309375 50.40707031 -58.036875 49.93914062 -57.21875 49.45703125 C-51.2722531 46 -51.2722531 46 -49 46 C-49 45.34 -49 44.68 -49 44 C-48.21625 43.62875 -47.4325 43.2575 -46.625 42.875 C-38.82752485 38.96713189 -31.53140642 34.09873546 -24.25 29.3203125 C-22 28 -22 28 -20 28 C-20.62533375 25.47636012 -20.62533375 25.47636012 -22 23 C-24.45884972 22.20087384 -26.43090798 22 -29 22 C-29.33 22.99 -29.66 23.98 -30 25 C-32.19808211 26.21690068 -34.34248185 27.28213603 -36.625 28.3125 C-41.50780273 30.61332281 -45.52057956 33.01330059 -49.4375 36.734375 C-51.70917639 38.57443288 -54.14859702 39.2616052 -56.8984375 40.1640625 C-60.9723824 41.78455359 -64.41882703 44.50874924 -68 47 C-69.47188734 47.96947639 -70.95067397 48.92859356 -72.4375 49.875 C-73.07558594 50.28492188 -73.71367187 50.69484375 -74.37109375 51.1171875 C-76 52 -76 52 -78 52 C-78 52.66 -78 53.32 -78 54 C-81.87590888 56.99040161 -84.80450237 57.36081604 -89.625 57.25 C-90.75164062 57.23453125 -91.87828125 57.2190625 -93.0390625 57.203125 C-96 57 -96 57 -99 56 C-100.1875 52.9375 -100.1875 52.9375 -101 50 C-101.66 50 -102.32 50 -103 50 C-103.05447047 48.58376784 -103.09300508 47.16691809 -103.125 45.75 C-103.14820313 44.96109375 -103.17140625 44.1721875 -103.1953125 43.359375 C-102.96757564 40.60831372 -102.5852759 39.26920921 -101 37 C-98.375 35.02734375 -98.375 35.02734375 -95 32.9375 C-94.3920459 32.55754883 -93.7840918 32.17759766 -93.15771484 31.78613281 C-91.1119961 30.51262543 -89.05686281 29.25542124 -87 28 C-85.45045353 27.04828665 -83.90097621 26.09646072 -82.3515625 25.14453125 C-79.31414344 23.28199237 -76.27223285 21.427135 -73.2265625 19.578125 C-69.1290523 17.08688799 -65.06033978 14.55126906 -61 12 C-58.49913752 10.429691 -56.26335659 9.09875872 -53.5 8.0625 C-50.89276163 7.096125 -50.89276163 7.096125 -48.71875 5.1015625 C-45.88845373 2.91377601 -43.30779756 1.64996406 -40 0.3125 C-38.4840625 -0.31205078 -38.4840625 -0.31205078 -36.9375 -0.94921875 C-25.58343228 -5.01071372 -11.11850051 -4.38828343 0 0 Z " fill="#12615F" transform="translate(285,328)"/>
<path d="M0 0 C0.91652344 0.10916748 1.83304688 0.21833496 2.77734375 0.33081055 C7.96881059 1.05634087 12.13969571 2.24972945 16.71875 4.82666016 C18.65949196 5.93414011 18.65949196 5.93414011 21.875 6.875 C24.4375 7.75 24.4375 7.75 25.4375 9.75 C27.24778114 10.53465108 29.08705245 11.25292786 30.9375 11.9375 C36.15995433 14.03392466 40.1532829 16.51118592 44.45703125 20.1015625 C46.99286851 22.21225939 49.66257498 23.97120191 52.4375 25.75 C52.4375 23.11 52.4375 20.47 52.4375 17.75 C51.7775 17.75 51.1175 17.75 50.4375 17.75 C49.76444982 16.14850114 49.09927773 14.54368971 48.4375 12.9375 C48.06625 12.04417969 47.695 11.15085938 47.3125 10.23046875 C46.4375 7.75 46.4375 7.75 46.4375 4.75 C55.72656499 8.00613132 65.81621775 16.65464809 70.5625 25.375 C72.25008497 28.80919527 72.25008497 28.80919527 74.9375 31.125 C77.78322698 34.11301333 79.02380783 36.87585696 80.54296875 40.6640625 C81.46451143 42.98753977 81.46451143 42.98753977 83.4375 45.75 C83.7675 46.78125 84.0975 47.8125 84.4375 48.875 C85.1061673 51.87511062 85.1061673 51.87511062 87.4375 52.75 C87.581875 52.13125 87.72625 51.5125 87.875 50.875 C88.4375 48.75 88.4375 48.75 89.4375 46.75 C90.0975 46.75 90.7575 46.75 91.4375 46.75 C91.5921875 45.1721875 91.5921875 45.1721875 91.75 43.5625 C92.41699332 39.86371887 93.18740008 37.72013189 95.4375 34.75 C96.0975 34.75 96.7575 34.75 97.4375 34.75 C97.581875 33.821875 97.72625 32.89375 97.875 31.9375 C100.5294696 22.70293673 109.90629122 14.30685383 117.4375 8.75 C118.0975 8.75 118.7575 8.75 119.4375 8.75 C119.4375 8.09 119.4375 7.43 119.4375 6.75 C121.7475 6.09 124.0575 5.43 126.4375 4.75 C125.10416667 8.75 123.77083333 12.75 122.4375 16.75 C121.7775 16.75 121.1175 16.75 120.4375 16.75 C120.4375 19.39 120.4375 22.03 120.4375 24.75 C121.2109375 24.14671875 121.984375 23.5434375 122.78125 22.921875 C137.34072581 11.75 137.34072581 11.75 143.4375 11.75 C143.4375 11.09 143.4375 10.43 143.4375 9.75 C148.43046295 6.8054321 152.77307626 6.11504064 158.4375 5.75 C158.4375 5.09 158.4375 4.43 158.4375 3.75 C170.10409602 0.40857331 180.92915156 -0.84030512 193.05297852 -0.66162109 C195.66135849 -0.62448232 198.26833281 -0.62060775 200.87695312 -0.62109375 C202.55730387 -0.6112804 204.23764514 -0.59963126 205.91796875 -0.5859375 C207.07113838 -0.58259903 207.07113838 -0.58259903 208.24760437 -0.57919312 C212.67888074 -0.50125663 216.2601627 0.09262169 220.4375 1.75 C220.4375 2.08 220.4375 2.41 220.4375 2.75 C216.54279437 3.42336904 212.64657067 4.08751584 208.75 4.75 C207.64720703 4.94078125 206.54441406 5.1315625 205.40820312 5.328125 C204.34150391 5.50859375 203.27480469 5.6890625 202.17578125 5.875 C200.70685425 6.12636719 200.70685425 6.12636719 199.20825195 6.3828125 C196.57838643 6.73132935 194.08626878 6.81764613 191.4375 6.75 C191.4375 7.41 191.4375 8.07 191.4375 8.75 C189.16800898 9.42155349 186.8971039 10.0873963 184.625 10.75 C183.36042969 11.12125 182.09585938 11.4925 180.79296875 11.875 C177.4375 12.75 177.4375 12.75 174.4375 12.75 C174.4375 13.41 174.4375 14.07 174.4375 14.75 C173.82003906 14.96914062 173.20257813 15.18828125 172.56640625 15.4140625 C166.92570252 17.52610682 162.20742275 20.01488423 157.34765625 23.578125 C155.4375 24.75 155.4375 24.75 152.4375 24.75 C152.4375 25.41 152.4375 26.07 152.4375 26.75 C150.77470673 27.7564275 149.10766516 28.75585407 147.4375 29.75 C146.7775 30.74 146.1175 31.73 145.4375 32.75 C143.77744983 33.7609457 142.11000616 34.75979753 140.4375 35.75 C134.33588559 41.03452866 129.62284588 46.88823556 125.4375 53.75 C125.05174805 54.33128662 124.66599609 54.91257324 124.26855469 55.51147461 C121.18576789 60.2277215 118.9600865 64.8435944 117.1875 70.1875 C116.92718994 70.95521729 116.66687988 71.72293457 116.39868164 72.51391602 C114.42001797 78.79068043 113.76988756 84.78517288 113.92675781 91.35522461 C113.93359375 93.37109375 113.93359375 93.37109375 113.4375 96.75 C111.15234375 98.5390625 111.15234375 98.5390625 108.4375 99.75 C107.13165672 100.71017888 105.83921065 101.68891097 104.5625 102.6875 C102.01624263 104.63322497 99.50324494 106.34628011 96.6875 107.875 C92.48636756 110.29873026 90.10942788 112.74210817 87.4375 116.75 C84.94388429 115.54618552 82.75606917 114.29571278 80.4375 112.75 C80.4375 112.09 80.4375 111.43 80.4375 110.75 C79.6640625 110.37875 79.6640625 110.37875 78.875 110 C60.85835877 100.76069681 60.85835877 100.76069681 58.578125 94.32421875 C58.30573624 91.74854266 58.30643815 89.33549277 58.4375 86.75 C58.41978359 85.0416315 58.39913596 83.33328986 58.375 81.625 C58.395625 80.34625 58.41625 79.0675 58.4375 77.75 C57.7775 77.75 57.1175 77.75 56.4375 77.75 C56.27894531 77.08355469 56.12039062 76.41710937 55.95703125 75.73046875 C53.23123399 64.9628166 48.9586808 55.73717353 42.4375 46.75 C41.81875 45.88375 41.2 45.0175 40.5625 44.125 C38.08017544 41.35063726 35.39343938 38.97472465 32.55859375 36.56640625 C31.21375898 35.41475216 29.89011657 34.23748176 28.59765625 33.02734375 C15.85426109 21.19996431 -0.93498715 13.26532202 -17.5625 8.75 C-18.56539062 8.41871094 -19.56828125 8.08742187 -20.6015625 7.74609375 C-26.25497676 6.12693846 -32.17275817 5.74809842 -38 5.125 C-39.20849609 4.9909375 -40.41699219 4.856875 -41.66210938 4.71875 C-44.62835991 4.39046931 -47.59510281 4.06771939 -50.5625 3.75 C-50.5625 2.76 -50.5625 1.77 -50.5625 0.75 C-33.43048053 -1.04758318 -17.13216019 -2.14579167 0 0 Z " fill="#13615F" transform="translate(124.5625,136.25)"/>
<path d="M0 0 C3.34192692 0.24453124 4.60543557 0.60543557 7 3 C7 4.32 7 5.64 7 7 C5.34765625 8.52734375 5.34765625 8.52734375 3.0625 9.9375 C2.23878906 10.45054687 1.41507812 10.96359375 0.56640625 11.4921875 C-2.50596089 13.29726165 -5.58881753 15.06927645 -8.72265625 16.765625 C-10.32352682 17.63333529 -11.91388489 18.52058545 -13.49609375 19.421875 C-14.30175781 19.88078125 -15.10742188 20.3396875 -15.9375 20.8125 C-17.03384766 21.44091797 -17.03384766 21.44091797 -18.15234375 22.08203125 C-20 23 -20 23 -22 23 C-22 23.66 -22 24.32 -22 25 C-23.52880859 26.14501953 -23.52880859 26.14501953 -25.6484375 27.3828125 C-26.78539062 28.04990234 -26.78539062 28.04990234 -27.9453125 28.73046875 C-28.74710937 29.19066406 -29.54890625 29.65085937 -30.375 30.125 C-31.1690625 30.59292969 -31.963125 31.06085938 -32.78125 31.54296875 C-38.7277469 35 -38.7277469 35 -41 35 C-41 35.66 -41 36.32 -41 37 C-41.83144531 37.40992188 -42.66289062 37.81984375 -43.51953125 38.2421875 C-44.60621094 38.78101563 -45.69289062 39.31984375 -46.8125 39.875 C-47.89144531 40.40867187 -48.97039062 40.94234375 -50.08203125 41.4921875 C-53.07838265 42.97221139 -53.07838265 42.97221139 -56 45 C-64.4028283 46.0478347 -71.43301959 45.8940476 -78.4609375 40.80078125 C-80.35308867 38.58686833 -80.65933456 36.85672304 -81 34 C-81.66 34 -82.32 34 -83 34 C-83 33.01 -83 32.02 -83 31 C-83.55171875 30.74476563 -84.1034375 30.48953125 -84.671875 30.2265625 C-87.36637058 28.80697926 -89.76778728 27.13867746 -92.25 25.375 C-93.14203125 24.74335938 -94.0340625 24.11171875 -94.953125 23.4609375 C-95.62859375 22.97882813 -96.3040625 22.49671875 -97 22 C-95.68 21.67 -94.36 21.34 -93 21 C-93 21.66 -93 22.32 -93 23 C-92.34 23 -91.68 23 -91 23 C-90.67 22.01 -90.34 21.02 -90 20 C-89.34 20 -88.68 20 -88 20 C-87.67 19.01 -87.34 18.02 -87 17 C-86.01 17 -85.02 17 -84 17 C-83.5875 16.05125 -83.175 15.1025 -82.75 14.125 C-80.9959869 10.99283376 -80.29148243 10.13499394 -77 9 C-77 8.34 -77 7.68 -77 7 C-73.25531757 4.2765946 -69.44694175 3.15291082 -65 2 C-64.01 1.67 -63.02 1.34 -62 1 C-61.01 1.33 -60.02 1.66 -59 2 C-58.505 4.475 -58.505 4.475 -58 7 C-60.10187532 8.31629567 -62.20631676 9.62812997 -64.3125 10.9375 C-64.90740234 11.31068359 -65.50230469 11.68386719 -66.11523438 12.06835938 C-68.72747744 13.68824194 -71.07221173 15.02407058 -74 16 C-74.66 20.29 -75.32 24.58 -76 29 C-75.34 29 -74.68 29 -74 29 C-72 32 -72 32 -72 35 C-69.43721301 35.05420701 -66.87558517 35.09377007 -64.3125 35.125 C-63.59126953 35.14175781 -62.87003906 35.15851563 -62.12695312 35.17578125 C-57.95123219 35.21391569 -54.7505862 34.8789919 -51 33 C-51 32.34 -51 31.68 -51 31 C-49.53466797 29.91845703 -49.53466797 29.91845703 -47.4921875 28.7578125 C-46.75226563 28.33113281 -46.01234375 27.90445312 -45.25 27.46484375 C-44.074375 26.80162109 -44.074375 26.80162109 -42.875 26.125 C-41.3506016 25.2542843 -39.82714688 24.38191418 -38.3046875 23.5078125 C-37.56895508 23.08604736 -36.83322266 22.66428223 -36.07519531 22.22973633 C-34.22373782 21.1325844 -32.4406476 19.98282915 -30.6640625 18.76953125 C-28 17 -28 17 -24.5 15.5625 C-20.5549698 13.80132581 -18.24596447 11.8225778 -15 9 C-12.17092128 7.11394752 -9.52924566 5.8052051 -6.375 4.5 C-3.05513861 3.28942234 -3.05513861 3.28942234 -1.375 1.25 C-0.92125 0.8375 -0.4675 0.425 0 0 Z " fill="#EBF3F2" transform="translate(258,349)"/>
<path d="M0 0 C5.95080317 2.97540158 9.17301522 10.15178077 11.375 16.1875 C12.37089821 22.9475363 11.68543501 29.82484278 7.75390625 35.546875 C5.4289327 38.5823914 3.07971708 41.48278292 0.375 44.1875 C-0.945 44.1875 -2.265 44.1875 -3.625 44.1875 C-5.625 41.625 -5.625 41.625 -7.625 38.1875 C-7.98980469 37.58808594 -8.35460937 36.98867187 -8.73046875 36.37109375 C-13.06011587 29.13417456 -14.00754556 21.709782 -11.94140625 13.45703125 C-9.88348928 7.81270297 -6.76590185 0.4832787 0 0 Z " fill="#1A6765" transform="translate(211.625,119.8125)"/>
<path d="M0 0 C0.45418209 11.03494271 0.06955145 17.64946337 -7.125 26.1875 C-11.68703743 31.00958842 -16.84225984 35.82382457 -23.765625 36.1171875 C-24.50296875 36.07851562 -25.2403125 36.03984375 -26 36 C-27.06014085 32.5032451 -27.1994451 29.2066659 -27.25 25.5625 C-27.27578125 24.45003906 -27.3015625 23.33757812 -27.328125 22.19140625 C-26.96098105 18.62049426 -26.01867773 16.92443289 -24 14 C-23.41412109 12.87078125 -23.41412109 12.87078125 -22.81640625 11.71875 C-19.33595204 5.56018928 -15.52869904 3.30211408 -9 0.77734375 C-5.87546766 -0.03226814 -3.21328599 -0.14823194 0 0 Z " fill="#AABC26" transform="translate(258,97)"/>
<path d="M0 0 C2.1346875 -0.0309375 2.1346875 -0.0309375 4.3125 -0.0625 C5.51326172 -0.07990234 5.51326172 -0.07990234 6.73828125 -0.09765625 C9 0 9 0 12 1 C12 1.66 12 2.32 12 3 C12.88171875 3.16628906 12.88171875 3.16628906 13.78125 3.3359375 C16.23278618 4.06967192 17.55876342 4.97494891 19.5 6.625 C20.35078125 7.32496094 20.35078125 7.32496094 21.21875 8.0390625 C26.47002808 13.82007477 27.58729463 18.36783021 27.25 25.9375 C27.22292969 27.10635742 27.22292969 27.10635742 27.1953125 28.29882812 C27.14866383 30.19976131 27.07693829 32.10005169 27 34 C19.30945008 34.09407401 14.86415575 33.43507118 9 28 C4.0018378 22.66297935 2.03397613 18.33884476 2 11 C1.34 11 0.68 11 0 11 C0 7.37 0 3.74 0 0 Z " fill="#ADBB26" transform="translate(163,97)"/>
<path d="M0 0 C3.48221175 0.17411059 5.65214817 0.68551124 8.75 2.1875 C8.75 2.8475 8.75 3.5075 8.75 4.1875 C10.4 4.5175 12.05 4.8475 13.75 5.1875 C13.75 5.8475 13.75 6.5075 13.75 7.1875 C14.3275 7.414375 14.905 7.64125 15.5 7.875 C19.75858218 10.35917294 21.45729707 13.30939121 23 17.9375 C24.16315779 23.36213854 24.51414343 28.8950697 22.75 34.1875 C16.25378097 34.87858713 11.92424516 33.15471713 6.75 29.1875 C-0.10020645 22.24198633 -4.33282298 15.57165019 -4.5 5.75 C-4.39930637 0.25380614 -4.39930637 0.25380614 0 0 Z " fill="#186665" transform="translate(128.25,98.8125)"/>
<path d="M0 0 C1.8515625 1.86328125 1.8515625 1.86328125 3.625 4.3125 C4.21539062 5.11300781 4.80578125 5.91351563 5.4140625 6.73828125 C9.74153445 12.90972524 9.57509752 17.5596758 9 25 C7.83189763 30.21995746 4.88119038 33.42521938 1 37 C0.67 37.66 0.34 38.32 0 39 C-4.34415669 38.51731592 -6.21227649 37.34526822 -9 34 C-12.2422507 29.69289246 -12.4571362 25.84521153 -12.375 20.625 C-12.38660156 19.89539063 -12.39820313 19.16578125 -12.41015625 18.4140625 C-12.37497886 11.84761647 -10.83002976 7.20542048 -6.5625 2.0625 C-4 0 -4 0 0 0 Z " fill="#A9B923" transform="translate(213,71)"/>
<path d="M0 0 C0.46801457 11.68303045 -1.0123945 17.34263321 -8.93359375 26.0078125 C-11.8534811 28.82282677 -14.83964271 31 -19 31 C-19 31.66 -19 32.32 -19 33 C-21.31 33 -23.62 33 -26 33 C-28.09351048 26.71946855 -27.90155387 19.09349324 -25.23828125 12.984375 C-21.82437225 7.51350505 -17.3458188 3.02886789 -11.4375 0.4375 C-7.54737319 -0.05760705 -3.91811164 -0.1374776 0 0 Z " fill="#156563" transform="translate(297,100)"/>
<path d="M0 0 C4.13509642 0.0522603 6.39430417 0.71055451 9.75 3.25 C10.74 3.86875 11.73 4.4875 12.75 5.125 C16.78241274 7.98129236 20.16013026 10.48039078 21.75 15.25 C21.81937062 17.47818441 21.83457084 19.70834524 21.8125 21.9375 C21.80347656 23.11699219 21.79445313 24.29648438 21.78515625 25.51171875 C21.77355469 26.41535156 21.76195313 27.31898437 21.75 28.25 C13.82050426 28.8266906 8.29568872 26.73952612 1.8125 22.1875 C-0.25 20.25 -0.25 20.25 -2.25 17.25 C-2.25 16.26 -2.25 15.27 -2.25 14.25 C-2.91 14.25 -3.57 14.25 -4.25 14.25 C-5.35424872 9.83300512 -5.40088074 5.77642225 -5.25 1.25 C-3.68966377 -0.31033623 -2.16052864 0.04292441 0 0 Z " fill="#ACBB25" transform="translate(93.25,94.75)"/>
<path d="M0 0 C1.8871875 0.061875 1.8871875 0.061875 3.8125 0.125 C5.656551 5.657153 5.78948788 11.73630205 3.375 17.125 C0.32680923 22.50610211 -4.59181111 29.32715556 -10.1875 32.125 C-12.18710012 32.164992 -14.18797242 32.16846799 -16.1875 32.125 C-16.1875 31.135 -16.1875 30.145 -16.1875 29.125 C-16.8475 29.125 -17.5075 29.125 -18.1875 29.125 C-20.36040812 24.77918376 -19.72617262 19.27625946 -18.57421875 14.67578125 C-16.23156481 8.59726508 -12.6176254 5.52579722 -7.1875 2.125 C-4.09861478 0.06574319 -3.47814073 -0.1140374 0 0 Z " fill="#ACBD29" transform="translate(290.1875,52.875)"/>
<path d="M0 0 C1.61253453 1.61253453 1.24791423 3.33599043 1.3125 5.5625 C1.2889335 11.02207151 -0.24144479 14.34493808 -3 19 C-3.66 19 -4.32 19 -5 19 C-5.2475 19.556875 -5.495 20.11375 -5.75 20.6875 C-7.2981655 23.55160617 -8.68251501 25.68251501 -11 28 C-14.453125 28.48828125 -14.453125 28.48828125 -18.25 28.3125 C-19.51328125 28.26738281 -20.7765625 28.22226563 -22.078125 28.17578125 C-23.04234375 28.11777344 -24.0065625 28.05976562 -25 28 C-25.41594936 20.48210047 -25.20218592 14.21875288 -20.5234375 8.0546875 C-14.74068632 1.74383119 -8.58900822 -0.70114353 0 0 Z " fill="#ACBC2A" transform="translate(331,95)"/>
<path d="M0 0 C1 1 1 1 1.0625 4.5625 C1.041875 5.696875 1.02125 6.83125 1 8 C0.34 8 -0.32 8 -1 8 C-1.185625 8.804375 -1.37125 9.60875 -1.5625 10.4375 C-3.9749869 16.41627189 -7.33251369 21.71755466 -13.25 24.5625 C-18.16938077 25.13642776 -23.05448343 25.36791905 -28 25 C-28.33 24.67 -28.66 24.34 -29 24 C-28.94921875 22.109375 -28.94921875 22.109375 -28.6875 19.75 C-28.60886719 18.98171875 -28.53023438 18.2134375 -28.44921875 17.421875 C-27.14943371 10.41433828 -23.3160507 6.48038364 -18 2 C-12.60731661 -0.94146366 -6.01172275 -0.40202812 0 0 Z " fill="#156362" transform="translate(324,154)"/>
<path d="M0 0 C0.409187 8.24436021 -0.17942537 14.12809837 -4.375 21.375 C-6.37993075 23.37993075 -8.37529781 23.99049916 -11 25 C-11.66 25.99 -12.32 26.98 -13 28 C-15.88211302 28.96070434 -17.69850044 29.10581883 -20.6875 29.0625 C-21.89986328 29.04896484 -21.89986328 29.04896484 -23.13671875 29.03515625 C-23.75160156 29.02355469 -24.36648438 29.01195312 -25 29 C-25.58167722 19.450799 -24.71781066 12.75053585 -18.75 5.125 C-12.8294394 0.55002136 -7.35438292 -0.3939848 0 0 Z " fill="#AEBD2F" transform="translate(281,182)"/>
<path d="M0 0 C1.77074917 -0.02705729 3.54161711 -0.04642195 5.3125 -0.0625 C6.29863281 -0.07410156 7.28476563 -0.08570313 8.30078125 -0.09765625 C13.57864002 0.09329378 15.47703661 2.30927645 19 6 C19.886875 6.825 20.77375 7.65 21.6875 8.5 C23.98492075 10.98369811 24.94349074 12.83047223 26 16 C26.33 16.33 26.66 16.66 27 17 C27.07244053 19.01964199 27.08377188 21.04167124 27.0625 23.0625 C27.05347656 24.16722656 27.04445312 25.27195313 27.03515625 26.41015625 C27.02355469 27.26480469 27.01195312 28.11945313 27 29 C20.95711141 29.62946756 16.87251217 29.09786859 11.859375 25.55859375 C7.9268247 22.26219129 4.61081204 19.05058327 3.125 14.0625 C3.063125 13.0415625 3.063125 13.0415625 3 12 C2.34 12 1.68 12 1 12 C-0.3271261 8.0186217 -0.06915913 4.14954773 0 0 Z " fill="#ABB92B" transform="translate(139,182)"/>
<path d="M0 0 C8.36429164 0.09738503 13.44658307 3.59581321 19.6875 8.84765625 C20.9375 10.3125 20.9375 10.3125 20.9375 13.3125 C21.5975 13.3125 22.2575 13.3125 22.9375 13.3125 C24.23199495 17.19598484 24.06953312 20.21947336 23.9375 24.3125 C22.25652094 25.99347906 20.24232547 25.56417822 17.9375 25.625 C10.81841872 25.50527418 5.9009304 24.06964747 0.63671875 19.171875 C-3.86346347 14.0881878 -5.95703438 10.05663856 -6.22265625 3.24609375 C-5.90070576 -0.64086951 -3.37065967 0.08809152 0 0 Z " fill="#166360" transform="translate(103.0625,153.6875)"/>
<path d="M0 0 C0.70189453 0.00451172 1.40378906 0.00902344 2.12695312 0.01367188 C3.85550538 0.02543073 5.58401365 0.04336546 7.3125 0.0625 C7.3125 0.7225 7.3125 1.3825 7.3125 2.0625 C8.01375 2.124375 8.715 2.18625 9.4375 2.25 C13.43330087 3.37924807 15.34060678 5.15972058 18.3125 8.0625 C18.3125 9.0525 18.3125 10.0425 18.3125 11.0625 C17.3225 11.7225 16.3325 12.3825 15.3125 13.0625 C14.9825 14.0525 14.6525 15.0425 14.3125 16.0625 C7.89262795 19.84897793 -0.5117319 20.15830695 -7.6875 19.0625 C-11.20138002 17.5902039 -14.1368769 15.91647391 -16.6875 13.0625 C-17.625 10.58984375 -17.625 10.58984375 -17.6875 8.0625 C-16.359375 6.078125 -16.359375 6.078125 -14.4375 4.3125 C-13.81359375 3.71953125 -13.1896875 3.1265625 -12.546875 2.515625 C-8.70084115 -0.49009893 -4.63504295 -0.05626103 0 0 Z " fill="#246B69" transform="translate(387.6875,193.9375)"/>
<path d="M0 0 C4.67636277 3.87795937 7.4800748 8.04714401 8.28515625 14.16796875 C8.54690891 20.78006849 7.03624653 26.21712975 3.125 31.5625 C1 33 1 33 -1.4375 33.0625 C-6.26361412 31.06142829 -8.47914616 28.0237472 -10.8125 23.4375 C-12.74485094 17.53992025 -13.55506271 10.49144347 -10.98046875 4.7109375 C-8.00779585 0.34622745 -5.16024577 -2.12480708 0 0 Z " fill="#196765" transform="translate(186,58)"/>
<path d="M0 0 C14.46505235 -0.91422381 14.46505235 -0.91422381 20.37890625 3.5625 C21.18134766 4.2740625 21.18134766 4.2740625 22 5 C22.52464844 5.45375 23.04929687 5.9075 23.58984375 6.375 C25 7.6875 25 7.6875 27 10 C27 10.66 27 11.32 27 12 C27.66 12 28.32 12 29 12 C30.28317892 15.84953676 30.06643637 18.94738135 30 23 C24.25329713 25.87335143 16.8299724 23.69599197 11 22 C11 21.34 11 20.68 11 20 C10.4225 19.979375 9.845 19.95875 9.25 19.9375 C6.1209947 18.63374779 5.41819348 16.63766396 3.9296875 13.69140625 C3.00039225 11.81434849 3.00039225 11.81434849 1 10 C0.5859375 7.6171875 0.5859375 7.6171875 0.375 4.875 C0.30023438 3.96492187 0.22546875 3.05484375 0.1484375 2.1171875 C0.09945313 1.41851562 0.05046875 0.71984375 0 0 Z " fill="#206866" transform="translate(367,221)"/>
<path d="M0 0 C2.66796875 1.57421875 2.66796875 1.57421875 5.1875 3.6875 C6.44626953 4.71423828 6.44626953 4.71423828 7.73046875 5.76171875 C10.7405018 8.73030556 12.74621059 11.25349225 13.36328125 15.5 C13.25013533 21.07026076 12.9025452 25.1461822 9.75 29.875 C8 31 8 31 5 30.75 C-0.09132673 29.47716832 -1.99161519 28.35697111 -5 24 C-5 23.01 -5 22.02 -5 21 C-5.99 20.67 -6.98 20.34 -8 20 C-9.01805604 16.94583187 -9.13375515 14.82063039 -9.125 11.625 C-9.12757813 10.68914063 -9.13015625 9.75328125 -9.1328125 8.7890625 C-9.00311527 6.06542061 -8.73332838 3.62698646 -8 1 C-5.15509735 -0.42245133 -3.15786788 -0.28918204 0 0 Z " fill="#206968" transform="translate(156,31)"/>
<path d="M0 0 C0 0.66 0 1.32 0 2 C0.7425 2.0825 1.485 2.165 2.25 2.25 C5.61204018 3.16692005 6.96464165 4.18181152 9 7 C8.92811346 9.94734814 8.44394312 11.43498149 6.625 13.75 C5 15 5 15 2 16 C1.67 16.99 1.34 17.98 1 19 C-4.61 19 -10.22 19 -16 19 C-16 18.34 -16 17.68 -16 17 C-16.8353125 16.9071875 -16.8353125 16.9071875 -17.6875 16.8125 C-21.08899084 15.6173816 -22.7761796 13.79565993 -25 11 C-25.1875 8.5 -25.1875 8.5 -24 6 C-17.39571702 -0.60428298 -9.13436493 -3.04478831 0 0 Z " fill="#166463" transform="translate(41,194)"/>
<path d="M0 0 C8.91860465 -0.45348837 8.91860465 -0.45348837 13 3 C18.36340391 9.16734026 21.14377829 13.16243736 21.125 21.5 C21.12886719 23.21703125 21.12886719 23.21703125 21.1328125 24.96875 C21 28 21 28 20 31 C17.36 30.67 14.72 30.34 12 30 C12 29.34 12 28.68 12 28 C11.29875 27.979375 10.5975 27.95875 9.875 27.9375 C5.64136379 26.55696645 3.44321116 23.6397398 1 20 C-1.00232503 16.01550757 -1.24311881 12.74683583 -1.1875 8.3125 C-1.18105469 7.17425781 -1.17460938 6.03601562 -1.16796875 4.86328125 C-1 2 -1 2 0 0 Z " fill="#ABBA22" transform="translate(128,53)"/>
<path d="M0 0 C3.92654974 1.26274953 4.78889214 3.5199336 6.61328125 7.0546875 C8.26161471 11.91727122 7.93633567 16.75669778 7.55078125 21.8203125 C6.89078125 21.8203125 6.23078125 21.8203125 5.55078125 21.8203125 C5.50953125 23.0371875 5.46828125 24.2540625 5.42578125 25.5078125 C5.00804256 28.86165739 4.31680224 30.59903961 1.80078125 32.8828125 C-1.44921875 34.8203125 -1.44921875 34.8203125 -4.13671875 34.7578125 C-6.86182185 33.65304097 -8.93210547 32.582924 -10.609375 30.109375 C-12.79148213 24.16186441 -12.41442295 16.77360662 -10.46875 10.8203125 C-5.05630566 -0.37095703 -5.05630566 -0.37095703 0 0 Z " fill="#0F5E5D" transform="translate(239.44921875,56.1796875)"/>
<path d="M0 0 C2.875 0.0625 2.875 0.0625 6 1 C8.125 3.3125 8.125 3.3125 10 6 C10.721875 6.66 11.44375 7.32 12.1875 8 C15.96535322 12.16866562 15.09011656 17.68312285 15 23 C14.34 23 13.68 23 13 23 C12.896875 24.0725 12.79375 25.145 12.6875 26.25 C12.02599507 29.85820872 11.42516579 31.36395023 9 34 C3.32548633 33.35148415 0.40130179 30.71896435 -3.13671875 26.37890625 C-5.451914 22.18049139 -5.4701238 19.3068639 -5.25 14.625 C-5.23195312 13.88894531 -5.21390625 13.15289062 -5.1953125 12.39453125 C-5.14859176 10.59578264 -5.07686183 8.79771289 -5 7 C-4.34 7 -3.68 7 -3 7 C-2.87625 6.21625 -2.7525 5.4325 -2.625 4.625 C-2 2 -2 2 0 0 Z " fill="#206866" transform="translate(190,19)"/>
<path d="M0 0 C2.57244338 0.9894013 3.76897699 1.76842009 5.4375 3.9375 C6.62431726 7.49795177 6.53439832 10.37558337 6.5 14.125 C6.49097656 15.39730469 6.48195312 16.66960938 6.47265625 17.98046875 C6.46105469 18.95628906 6.44945312 19.93210937 6.4375 20.9375 C5.7775 20.9375 5.1175 20.9375 4.4375 20.9375 C4.251875 21.5975 4.06625 22.2575 3.875 22.9375 C1.80816625 27.25089218 -1.32787811 30.45206519 -4.5625 33.9375 C-7.97597491 33.41104367 -9.29538632 33.19017511 -11.875 30.75 C-14.98726907 25.42570498 -14.55583048 18.81196437 -13.5625 12.9375 C-11.71613868 9.37055129 -9.43004886 6.72345194 -6.5625 3.9375 C-5.87800781 3.19628906 -5.19351563 2.45507812 -4.48828125 1.69140625 C-2.5625 -0.0625 -2.5625 -0.0625 0 0 Z " fill="#A9BA1E" transform="translate(230.5625,19.0625)"/>
<path d="M0 0 C1.98800064 5.96400191 2.25856035 13.54438387 0.09375 19.48828125 C-1.131221 21.51026864 -2.43761745 23.22792927 -4 25 C-4.46921875 25.58652344 -4.9384375 26.17304687 -5.421875 26.77734375 C-8.2078455 29.96024015 -9.60945616 30.91181268 -13.875 31.875 C-14.90625 31.91625 -15.9375 31.9575 -17 32 C-17 31.01 -17 30.02 -17 29 C-17.66 29 -18.32 29 -19 29 C-20.02319033 25.93042902 -20.13371939 23.77559677 -20.125 20.5625 C-20.12757813 19.61503906 -20.13015625 18.66757812 -20.1328125 17.69140625 C-20.01473475 15.29859541 -19.68112635 13.28663847 -19 11 C-18.34 11 -17.68 11 -17 11 C-16.9071875 10.1646875 -16.9071875 10.1646875 -16.8125 9.3125 C-15.26405987 4.90540118 -11.85410186 2.53381366 -8 0.125 C-4.74266197 -1.09650176 -3.26188248 -1.05531492 0 0 Z " fill="#196766" transform="translate(273,30)"/>
<path d="M0 0 C0.70189453 0.00902344 1.40378906 0.01804688 2.12695312 0.02734375 C3.85561525 0.05086296 5.58410145 0.08673287 7.3125 0.125 C8.47827327 3.78999954 7.98977009 5.75740971 6.31640625 9.26171875 C2.30812682 16.70121014 -2.53197894 21.40649298 -10.6875 24.125 C-12.625 24.2578125 -12.625 24.2578125 -14.6875 24.25 C-15.7084375 24.25386719 -15.7084375 24.25386719 -16.75 24.2578125 C-18.6875 24.125 -18.6875 24.125 -21.6875 23.125 C-22.34541155 17.86170761 -22.21564045 14.17952067 -19 9.8125 C-13.46705379 3.24865107 -8.64412856 -0.20984813 0 0 Z " fill="#146261" transform="translate(46.6875,220.875)"/>
<path d="M0 0 C0.928125 0.721875 1.85625 1.44375 2.8125 2.1875 C3.4725 2.6825 4.1325 3.1775 4.8125 3.6875 C5.8125 5.1875 5.8125 5.1875 5.8125 7.0625 C3.88201305 11.16478477 0.51657923 13.71811385 -3.1875 16.1875 C-10.24578716 17.62229936 -16.30501097 17.10557071 -23.1875 15.1875 C-23.1875 14.5275 -23.1875 13.8675 -23.1875 13.1875 C-24.115625 12.754375 -24.115625 12.754375 -25.0625 12.3125 C-27.1875 11.1875 -27.1875 11.1875 -29.1875 9.1875 C-28.85281502 5.95221184 -27.65463397 4.24500662 -25.375 2 C-24.87355469 1.49082031 -24.37210937 0.98164063 -23.85546875 0.45703125 C-18.13717784 -3.8952979 -6.01756471 -3.38326599 0 0 Z " fill="#ADBC2C" transform="translate(107.1875,185.8125)"/>
<path d="M0 0 C0.89203125 0.01804687 1.7840625 0.03609375 2.703125 0.0546875 C3.71632813 0.08949219 3.71632813 0.08949219 4.75 0.125 C4.75 0.785 4.75 1.445 4.75 2.125 C5.801875 2.310625 5.801875 2.310625 6.875 2.5 C7.82375 2.70625 8.7725 2.9125 9.75 3.125 C11.2659375 3.434375 11.2659375 3.434375 12.8125 3.75 C16.87462086 5.65141828 17.89938592 8.19244509 19.75 12.125 C20.1625 12.785 20.575 13.445 21 14.125 C22.11529333 17.09911556 21.79371903 19.97722976 21.75 23.125 C5.96778663 23.92297708 5.96778663 23.92297708 -0.25 19.125 C-3.25 15.9375 -3.25 15.9375 -3.25 13.125 C-3.91 13.125 -4.57 13.125 -5.25 13.125 C-5.25 12.465 -5.25 11.805 -5.25 11.125 C-6.24 10.795 -7.23 10.465 -8.25 10.125 C-8.58 7.485 -8.91 4.845 -9.25 2.125 C-6.03817851 0.21891902 -3.71117397 -0.09766247 0 0 Z " fill="#166261" transform="translate(63.25,103.875)"/>
<path d="M0 0 C2.06183633 -0.08150744 4.12461349 -0.1394194 6.1875 -0.1875 C7.33605469 -0.22230469 8.48460938 -0.25710937 9.66796875 -0.29296875 C13.33837858 0.02975193 15.04271394 0.86953663 18 3 C18.87398437 3.61681641 18.87398437 3.61681641 19.765625 4.24609375 C23.80694586 7.4897855 23.80694586 7.4897855 24.875 10.3125 C24.91625 10.869375 24.9575 11.42625 25 12 C25.66 12 26.32 12 27 12 C28.18082522 15.69007882 28.28527337 19.14880946 28 23 C24.25417361 25.4972176 21.33480369 25.61925767 17 25 C11.1156797 23.09624932 7.49861018 20.02925213 4 15 C4 14.34 4 13.68 4 13 C3.34 13 2.68 13 2 13 C0.24252386 8.49646738 -0.19294408 4.82360189 0 0 Z " fill="#166361" transform="translate(93,61)"/>
<path d="M0 0 C1.63001953 0.01353516 1.63001953 0.01353516 3.29296875 0.02734375 C4.12441406 0.03894531 4.95585937 0.05054688 5.8125 0.0625 C6.08772305 6.94307626 5.7466561 12.16126585 1.8125 18.0625 C-0.2109375 19.37890625 -0.2109375 19.37890625 -2.5625 20.625 C-3.33335937 21.03878906 -4.10421875 21.45257813 -4.8984375 21.87890625 C-6.03152344 22.46478516 -6.03152344 22.46478516 -7.1875 23.0625 C-7.84621094 23.43890625 -8.50492187 23.8153125 -9.18359375 24.203125 C-11.55084239 25.21831935 -13.30916563 25.29665153 -15.875 25.25 C-16.66261719 25.24355469 -17.45023437 25.23710938 -18.26171875 25.23046875 C-20.1875 25.0625 -20.1875 25.0625 -21.1875 24.0625 C-21.41137239 12.74095356 -21.41137239 12.74095356 -18 8.0625 C-17.071875 7.4025 -16.14375 6.7425 -15.1875 6.0625 C-14.14178821 5.15045062 -13.10015274 4.23370791 -12.0625 3.3125 C-7.91671241 0.06797058 -5.12160373 -0.05507101 0 0 Z " fill="#1D6766" transform="translate(322.1875,60.9375)"/>
<path d="M0 0 C2.87071034 2.42477476 4.69737765 4.87204398 5.6875 8.5625 C4.87261619 11.4516335 3.70804219 13.22020371 1.31640625 15.05859375 C-4.59571756 17.46132872 -11.99293855 16.40641015 -18.1953125 15.77734375 C-20.99787678 14.57017862 -22.37647866 12.55715755 -24.25 10.1875 C-24.95640625 9.31480469 -25.6628125 8.44210938 -26.390625 7.54296875 C-28 5 -28 5 -28 1 C-19.2118847 -3.70061981 -8.98870897 -5.23690001 0 0 Z " fill="#ACBB2B" transform="translate(66,174)"/>
<path d="M0 0 C0 2.31 0 4.62 0 7 C-0.66 7 -1.32 7 -2 7 C-2.185625 7.70125 -2.37125 8.4025 -2.5625 9.125 C-4.55070094 13.10140189 -7.33424828 15.52994412 -11 18 C-13.9375 18.875 -13.9375 18.875 -16 19 C-16 19.66 -16 20.32 -16 21 C-18.14576637 21.02685938 -20.29162645 21.04633088 -22.4375 21.0625 C-23.63246094 21.07410156 -24.82742188 21.08570312 -26.05859375 21.09765625 C-29 21 -29 21 -30 20 C-30.32116671 14.43311032 -30.10740697 10.61432379 -26.5546875 6.20703125 C-19.69222591 -1.25551106 -9.66453232 -3.22151077 0 0 Z " fill="#156361" transform="translate(367,106)"/>
<path d="M0 0 C2.33532818 1.43561227 3.74643684 2.60569492 4.85546875 5.140625 C4.8125 7.02734375 4.8125 7.02734375 3.85546875 9.140625 C1.69362652 10.64699907 -0.23963726 11.80688594 -2.58203125 12.953125 C-3.21367187 13.26427246 -3.8453125 13.57541992 -4.49609375 13.89599609 C-11.5840097 17.13983186 -16.44519024 16.5107513 -23.51953125 13.890625 C-26.53643424 11.87935634 -28.36921154 10.32140615 -30.14453125 7.140625 C-29.70703125 3.953125 -29.70703125 3.953125 -28.14453125 1.140625 C-25.89453125 -0.109375 -25.89453125 -0.109375 -23.14453125 -0.859375 C-22.25765625 -1.230625 -21.37078125 -1.601875 -20.45703125 -1.984375 C-13.10320651 -3.92689474 -6.81004451 -3.42310202 0 0 Z " fill="#ABBC28" transform="translate(339.14453125,186.859375)"/>
<path d="M0 0 C2.9375 1.625 2.9375 1.625 5 3 C4.68160666 6.18942289 4.34780832 7.65427021 2.0390625 9.94921875 C1.24242187 10.52285156 0.44578125 11.09648437 -0.375 11.6875 C-1.56222656 12.55955078 -1.56222656 12.55955078 -2.7734375 13.44921875 C-7.39043761 16.66491883 -10.16273989 17.25912116 -15.6875 17.125 C-16.38939453 17.11597656 -17.09128906 17.10695312 -17.81445312 17.09765625 C-19.54311525 17.07413704 -21.27160145 17.03826713 -23 17 C-23 16.34 -23 15.68 -23 15 C-23.61875 14.87625 -24.2375 14.7525 -24.875 14.625 C-27 14 -27 14 -29 12 C-29.4375 9.6875 -29.4375 9.6875 -29 7 C-22.09591723 -2.43557979 -10.34971427 -3.64156613 0 0 Z " fill="#ACBA23" transform="translate(379,173)"/>
<path d="M0 0 C1.12619751 0.00773438 1.12619751 0.00773438 2.27514648 0.015625 C8.31850609 0.21547068 11.95524937 1.58824414 16.625 5.5625 C14.85530289 9.35930471 12.74459552 11.72650407 9.625 14.5625 C8.8 15.325625 7.975 16.08875 7.125 16.875 C1.70229564 19.48951817 -3.47409541 19.55195909 -9.375 18.5625 C-12.48899266 16.95677502 -14.92178749 15.0527701 -17.375 12.5625 C-17.045 10.5825 -16.715 8.6025 -16.375 6.5625 C-15.715 6.5625 -15.055 6.5625 -14.375 6.5625 C-14.375 5.9025 -14.375 5.2425 -14.375 4.5625 C-9.67496441 0.59638164 -6.05382542 -0.11787513 0 0 Z " fill="#1A6563" transform="translate(369.375,141.4375)"/>
<path d="M0 0 C2.72418918 2.06337101 3.91721445 3.15055461 4.9453125 6.42578125 C5.125 8.8125 5.125 8.8125 4.125 10.8125 C1.80691636 11.84735877 -0.52675298 12.8480414 -2.875 13.8125 C-3.205 14.1425 -3.535 14.4725 -3.875 14.8125 C-6.1648821 14.91206009 -8.45795937 14.9421872 -10.75 14.9375 C-12.00554688 14.94007813 -13.26109375 14.94265625 -14.5546875 14.9453125 C-17.875 14.8125 -17.875 14.8125 -20.875 13.8125 C-21.143125 13.214375 -21.41125 12.61625 -21.6875 12 C-22.81479576 9.49252073 -22.81479576 9.49252073 -26 7.875 C-28.875 5.8125 -28.875 5.8125 -29.4375 3.25 C-28.77935377 0.39803302 -28.27580449 -0.53177276 -25.875 -2.1875 C-17.21983169 -4.37472665 -7.64001537 -5.08231903 0 0 Z " fill="#1C6664" transform="translate(64.875,145.1875)"/>
<path d="M0 0 C0.99 0.66 1.98 1.32 3 2 C3 2.99 3 3.98 3 5 C4.423125 4.2265625 4.423125 4.2265625 5.875 3.4375 C6.90625 2.963125 7.9375 2.48875 9 2 C9.66 2.33 10.32 2.66 11 3 C10.67 3.66 10.34 4.32 10 5 C10.66 5 11.32 5 12 5 C12.495 6.485 12.495 6.485 13 8 C14.08704224 7.75552124 14.08704224 7.75552124 15.19604492 7.50610352 C17.83325585 7.0300967 20.18993341 6.88509634 22.86328125 6.90234375 C24.19262695 6.90717773 24.19262695 6.90717773 25.54882812 6.91210938 C26.9168457 6.92467773 26.9168457 6.92467773 28.3125 6.9375 C29.24384766 6.94201172 30.17519531 6.94652344 31.13476562 6.95117188 C33.42324373 6.96290766 35.71158808 6.97932637 38 7 C38 7.33 38 7.66 38 8 C36.16888672 8.03867187 36.16888672 8.03867187 34.30078125 8.078125 C21.2674975 8.47504411 9.63422562 9.5940132 -1.09765625 17.73046875 C-3.08007791 19.05344009 -4.67204659 19.56966563 -7 20 C-7 19.34 -7 18.68 -7 18 C-8.32 17.67 -9.64 17.34 -11 17 C-11 16.34 -11 15.68 -11 15 C-11.86625 15.45375 -12.7325 15.9075 -13.625 16.375 C-16.71476907 17.86266659 -19.72930848 18.9876431 -23 20 C-21.73083275 17.46166551 -20.58375191 17.10599099 -18.0625 15.875 C-17.35222656 15.52179688 -16.64195312 15.16859375 -15.91015625 14.8046875 C-14 14 -14 14 -12 14 C-12 13.34 -12 12.68 -12 12 C-11.09507812 11.74476563 -11.09507812 11.74476563 -10.171875 11.484375 C-3.67248072 9.63282694 -3.67248072 9.63282694 1 5 C0.85974801 2.29294488 0.85974801 2.29294488 0 0 Z " fill="#E1EBEA" transform="translate(237,317)"/>
<path d="M0 0 C0.99 0 1.98 0 3 0 C3.66 0.99 4.32 1.98 5 3 C5.33 2.34 5.66 1.68 6 1 C10.80668512 1.4471335 13.73263632 2.3482406 17 6 C17.625 9.5 17.625 9.5 17 13 C14.625 15.1875 14.625 15.1875 12 17 C10.68834743 19.11660427 10.68834743 19.11660427 10 21 C9.01 20.67 8.02 20.34 7 20 C7 19.34 7 18.68 7 18 C6.401875 17.979375 5.80375 17.95875 5.1875 17.9375 C3 17 3 17 1.3125 13.5 C0.879375 12.345 0.44625 11.19 0 10 C-0.33 9.67 -0.66 9.34 -1 9 C-0.91062197 7.47480724 -0.75462854 5.95318071 -0.5625 4.4375 C-0.46066406 3.61121094 -0.35882813 2.78492188 -0.25390625 1.93359375 C-0.17011719 1.29550781 -0.08632812 0.65742188 0 0 Z " fill="#A7B61B" transform="translate(143,184)"/>
<path d="M0 0 C1.77074917 -0.02705729 3.54161711 -0.04642195 5.3125 -0.0625 C6.29863281 -0.07410156 7.28476563 -0.08570313 8.30078125 -0.09765625 C11 0 11 0 14 1 C14.33 1.99 14.66 2.98 15 4 C13.35 3.67 11.7 3.34 10 3 C9.67 3.99 9.34 4.98 9 6 C8.34 5.67 7.68 5.34 7 5 C7 4.01 7 3.02 7 2 C6.01 2 5.02 2 4 2 C3.94600264 3.45792884 3.90720823 4.91642712 3.875 6.375 C3.84019531 7.59316406 3.84019531 7.59316406 3.8046875 8.8359375 C3.78629949 11.21342243 3.78629949 11.21342243 6 13 C6.4640625 14.5159375 6.4640625 14.5159375 6.9375 16.0625 C7.288125 17.031875 7.63875 18.00125 8 19 C8.99 19.33 9.98 19.66 11 20 C11.2475 20.61875 11.495 21.2375 11.75 21.875 C13.71066822 25.20813597 16.43730378 25.75305632 20 27 C21.98821313 27.39764263 23.98732362 27.75455166 26 28 C26 24.37 26 20.74 26 17 C26.33 17 26.66 17 27 17 C27 20.96 27 24.92 27 29 C19.75396085 29.56609681 15.60728544 28.70022456 10 24 C6.28186549 20.45160642 3.32442743 17.35305253 3 12 C2.34 12 1.68 12 1 12 C-0.3271261 8.0186217 -0.06915913 4.14954773 0 0 Z " fill="#BECA64" transform="translate(139,182)"/>
<path d="M0 0 C0.97517578 0.12592529 1.95035156 0.25185059 2.95507812 0.3815918 C4.30762695 0.57555542 4.30762695 0.57555542 5.6875 0.7734375 C6.49574219 0.88864746 7.30398437 1.00385742 8.13671875 1.12255859 C9.05904297 1.37126709 9.05904297 1.37126709 10 1.625 C10.495 2.615 10.495 2.615 11 3.625 C9.69663696 3.41061279 9.69663696 3.41061279 8.36694336 3.19189453 C-1.95915502 1.63772001 -12.01001844 1.38528147 -22.4375 1.5 C-24.0553329 1.51006579 -25.67317198 1.51918518 -27.29101562 1.52734375 C-31.19416743 1.54903572 -35.09701216 1.58335959 -39 1.625 C-39 1.955 -39 2.285 -39 2.625 C-33.06 3.615 -33.06 3.615 -27 4.625 C-27 4.955 -27 5.285 -27 5.625 C-29.87526069 5.4833467 -32.75013536 5.33681468 -35.625 5.1875 C-36.43324219 5.14818359 -37.24148437 5.10886719 -38.07421875 5.06835938 C-42.45150865 4.83703918 -46.68547281 4.45579083 -51 3.625 C-51 2.635 -51 1.645 -51 0.625 C-33.67910179 -1.19240135 -17.30934062 -2.25561997 0 0 Z " fill="#5D918E" transform="translate(125,136.375)"/>
<path d="M0 0 C0.33 0.66 0.66 1.32 1 2 C1.99 2.33 2.98 2.66 4 3 C2.51332364 6.99055234 0.36412191 8.30752215 -3.3125 10.3125 C-4.25738281 10.84488281 -5.20226562 11.37726563 -6.17578125 11.92578125 C-9.33055323 13.1257291 -10.82436627 12.98913182 -14 12 C-14.33 11.01 -14.66 10.02 -15 9 C-11.23001737 4.75876954 -6.01786385 0 0 0 Z " fill="#F3F6F6" transform="translate(226,332)"/>
<path d="M0 0 C0.763125 0.515625 1.52625 1.03125 2.3125 1.5625 C3.3025 1.2325 4.2925 0.9025 5.3125 0.5625 C6.3025 1.2225 7.2925 1.8825 8.3125 2.5625 C6.5546875 3.5390625 4.796875 4.515625 3.0390625 5.4921875 C1.1512386 6.57147274 1.1512386 6.57147274 -0.6875 8.5625 C-1.6775 8.5625 -2.6675 8.5625 -3.6875 8.5625 C-3.6875 7.9025 -3.6875 7.2425 -3.6875 6.5625 C-5.0075 6.2325 -6.3275 5.9025 -7.6875 5.5625 C-7.6875 4.9025 -7.6875 4.2425 -7.6875 3.5625 C-8.55375 4.01625 -9.42 4.47 -10.3125 4.9375 C-13.40226907 6.42516659 -16.41680848 7.5501431 -19.6875 8.5625 C-18.41833275 6.02416551 -17.27125191 5.66849099 -14.75 4.4375 C-14.03972656 4.08429688 -13.32945312 3.73109375 -12.59765625 3.3671875 C-10.6875 2.5625 -10.6875 2.5625 -8.6875 2.5625 C-8.6875 1.9025 -8.6875 1.2425 -8.6875 0.5625 C-3.35416667 -1.79408915 -3.35416667 -1.79408915 0 0 Z " fill="#E7F0F0" transform="translate(233.6875,328.4375)"/>
<path d="M0 0 C-1.33333333 4 -2.66666667 8 -4 12 C-4.99 12 -5.98 12 -7 12 C-7.33 11.01 -7.66 10.02 -8 9 C-11.63 12.3 -15.26 15.6 -19 19 C-19.33 18.01 -19.66 17.02 -20 16 C-19.45730469 15.46890625 -18.91460937 14.9378125 -18.35546875 14.390625 C-17.64003906 13.68421875 -16.92460937 12.9778125 -16.1875 12.25 C-15.47980469 11.55390625 -14.77210938 10.8578125 -14.04296875 10.140625 C-11.96718507 8.06278237 -11.96718507 8.06278237 -10.36328125 5.734375 C-9.91339844 5.16203125 -9.46351563 4.5896875 -9 4 C-8.34 4 -7.68 4 -7 4 C-7 3.34 -7 2.68 -7 2 C-2.25 0 -2.25 0 0 0 Z " fill="#0F5A56" transform="translate(251,141)"/>
<path d="M0 0 C0.56347318 14.06596021 0.56347318 14.06596021 -3 19 C-3.66 19.33 -4.32 19.66 -5 20 C-5 18.35 -5 16.7 -5 15 C-4.34 15 -3.68 15 -3 15 C-2.34 10.38 -1.68 5.76 -1 1 C-7.68363952 2.27984587 -11.86824619 5.6479004 -17 10 C-17.33 9.34 -17.66 8.68 -18 8 C-18.66 7.67 -19.32 7.34 -20 7 C-14.20260806 0.32421534 -8.37940053 -0.29401405 0 0 Z " fill="#1A625C" transform="translate(297,100)"/>
<path d="M0 0 C0.66 0.33 1.32 0.66 2 1 C3.09506492 4.28519475 3.09960608 6.73663415 3.0625 10.1875 C3.05347656 11.27417969 3.04445312 12.36085938 3.03515625 13.48046875 C3.02355469 14.31191406 3.01195312 15.14335938 3 16 C2.34 16 1.68 16 1 16 C0.95875 17.216875 0.9175 18.43375 0.875 19.6875 C0.45726131 23.04134489 -0.23397901 24.77872711 -2.75 27.0625 C-6 29 -6 29 -8.6875 28.9375 C-11.51221733 27.79234433 -13.53670553 26.6949417 -15.25 24.125 C-16.12900603 21.63448293 -15.87491004 20.4497481 -15 18 C-14.34 19.98 -13.68 21.96 -13 24 C-12.34 24 -11.68 24 -11 24 C-10.67 24.66 -10.34 25.32 -10 26 C-8.8553125 25.5359375 -8.8553125 25.5359375 -7.6875 25.0625 C-5.81210323 24.32106407 -3.91315348 23.63771783 -2 23 C0.80682444 15.6136199 0.18230371 7.77829163 0 0 Z " fill="#4B817F" transform="translate(244,62)"/>
<path d="M0 0 C0 3 0 3 -2.1875 5.375 C-3.115625 6.24125 -4.04375 7.1075 -5 8 C-5.886875 8.928125 -6.77375 9.85625 -7.6875 10.8125 C-10 13 -10 13 -12 13 C-12 15.31 -12 17.62 -12 20 C-7.71 20 -3.42 20 1 20 C-2.02544334 22.01696222 -2.61067382 22.25811096 -6 22.1875 C-6.680625 22.18105469 -7.36125 22.17460937 -8.0625 22.16796875 C-10 22 -10 22 -13 21 C-13.65791155 15.73670761 -13.52814045 12.05452067 -10.3125 7.6875 C-3.82185629 0 -3.82185629 0 0 0 Z " fill="#467E7B" transform="translate(38,223)"/>
<path d="M0 0 C0.84009613 -0.00191345 1.68019226 -0.0038269 2.54574585 -0.00579834 C4.30882062 -0.00715056 6.07190568 -0.00352192 7.83496094 0.00488281 C10.52301453 0.01562331 13.21040402 0.00494094 15.8984375 -0.0078125 C17.61979313 -0.00649126 19.34114835 -0.0039296 21.0625 0 C21.85951324 -0.00404846 22.65652649 -0.00809692 23.47769165 -0.01226807 C28.00560636 0.02556377 31.63282436 0.55189173 35.8984375 2.265625 C35.8984375 2.595625 35.8984375 2.925625 35.8984375 3.265625 C29.9584375 3.760625 29.9584375 3.760625 23.8984375 4.265625 C24.8884375 3.605625 25.8784375 2.945625 26.8984375 2.265625 C13.3684375 2.265625 -0.1615625 2.265625 -14.1015625 2.265625 C-14.4315625 2.925625 -14.7615625 3.585625 -15.1015625 4.265625 C-15.7615625 3.605625 -16.4215625 2.945625 -17.1015625 2.265625 C-11.2571248 0.59055776 -6.06355479 -0.03095733 0 0 Z " fill="#3A7774" transform="translate(309.1015625,135.734375)"/>
<path d="M0 0 C1.37562854 1.28965176 2.70766393 2.62689293 4 4 C4 4.66 4 5.32 4 6 C4.66 6 5.32 6 6 6 C7.18082522 9.69007882 7.28527337 13.14880946 7 17 C3.29034259 19.47310494 0.30185433 19.55899802 -4 19 C-7.5 17.5 -7.5 17.5 -10 16 C-9.34 15.67 -8.68 15.34 -8 15 C-5.375 15.9375 -5.375 15.9375 -3 17 C-2.67 16.34 -2.34 15.68 -2 15 C0.97 15.495 0.97 15.495 4 16 C4 13.36 4 10.72 4 8 C3.34 7.67 2.68 7.34 2 7 C1.26924352 4.6859378 0.59861742 2.35171131 0 0 Z " fill="#4F8684" transform="translate(114,67)"/>
<path d="M0 0 C0.66 0.33 1.32 0.66 2 1 C-0.57784846 3.64752004 -2.91648098 5.94432065 -6 8 C-6.495 8.53625 -6.99 9.0725 -7.5 9.625 C-9 11 -9 11 -12 11 C-12 11.66 -12 12.32 -12 13 C-15.73563279 15.71682385 -19.55619192 16.86726461 -24 18 C-20.54296856 14.33848611 -17.04553951 11.53111047 -12.8125 8.8125 C-8.68043701 6.18480336 -8.68043701 6.18480336 -5 3 C-4.01 3 -3.02 3 -2 3 C-2 2.34 -2 1.68 -2 1 C-1.34 0.67 -0.68 0.34 0 0 Z " fill="#457F7A" transform="translate(264,224)"/>
<path d="M0 0 C1.19610025 3.96553237 0.9516915 7.56250458 0.7421875 11.66015625 C0.79980195 14.06315495 0.79980195 14.06315495 2.3828125 15.7734375 C4.25017853 17.18974893 5.72858689 17.50312838 8 18 C8.99 18.66 9.98 19.32 11 20 C9.8125 21.5625 9.8125 21.5625 8 23 C4.47274303 23.09044249 3.24646844 22.23314582 0.6875 19.8125 C-2.44451925 14.67245228 -1.4507043 7.7631042 -1 2 C-0.67 1.34 -0.34 0.68 0 0 Z " fill="#BECA64" transform="translate(218,30)"/>
<path d="M0 0 C0.58265625 0.23589844 1.1653125 0.47179687 1.765625 0.71484375 C2.095625 2.36484375 2.425625 4.01484375 2.765625 5.71484375 C-3.984375 9.71484375 -3.984375 9.71484375 -6.234375 9.71484375 C-6.234375 9.05484375 -6.234375 8.39484375 -6.234375 7.71484375 C-7.224375 7.38484375 -8.214375 7.05484375 -9.234375 6.71484375 C-8.16721428 5.51278911 -7.07999163 4.32852042 -5.984375 3.15234375 C-5.38109375 2.49105469 -4.7778125 1.82976562 -4.15625 1.1484375 C-2.234375 -0.28515625 -2.234375 -0.28515625 0 0 Z " fill="#F5F8F7" transform="translate(197.234375,350.28515625)"/>
<path d="M0 0 C3.96 0.33 7.92 0.66 12 1 C12 1.66 12 2.32 12 3 C8.37 2.67 4.74 2.34 1 2 C1 5.63 1 9.26 1 13 C1.66 13 2.32 13 3 13 C3.18175781 13.90492187 3.18175781 13.90492187 3.3671875 14.828125 C3.53476563 15.62734375 3.70234375 16.4265625 3.875 17.25 C4.03742188 18.03890625 4.19984375 18.8278125 4.3671875 19.640625 C4.99150075 21.96831144 5.84838542 23.89031952 7 26 C5.0625 25.3125 5.0625 25.3125 3 24 C2.375 21.4375 2.375 21.4375 2 19 C1.34 18.67 0.68 18.34 0 18 C0 12.06 0 6.12 0 0 Z " fill="#EEF0C9" transform="translate(162,95)"/>
<path d="M0 0 C0.79148437 -0.01417969 1.58296875 -0.02835937 2.3984375 -0.04296875 C4.625 0.1875 4.625 0.1875 7.625 2.1875 C4.325 2.1875 1.025 2.1875 -2.375 2.1875 C-2.23264543 3.91695653 -2.08595618 5.64605654 -1.9375 7.375 C-1.85628906 8.33792969 -1.77507812 9.30085938 -1.69140625 10.29296875 C-1.39833849 12.97399602 -0.94796246 15.5537986 -0.375 18.1875 C-1.035 17.8575 -1.695 17.5275 -2.375 17.1875 C-2.375 16.1975 -2.375 15.2075 -2.375 14.1875 C-3.035 14.1875 -3.695 14.1875 -4.375 14.1875 C-5.47924872 9.77050512 -5.52588074 5.71392225 -5.375 1.1875 C-3.79539731 -0.39210269 -2.17963184 0.01763456 0 0 Z " fill="#C7D075" transform="translate(93.375,94.8125)"/>
<path d="M0 0 C1.65653686 1.65653686 1.17106165 3.60650796 1.1875 5.875 C1.20167969 6.75929688 1.21585937 7.64359375 1.23046875 8.5546875 C1 11 1 11 -1 14 C-0.67 10.37 -0.34 6.74 0 3 C-2.27264504 3.25518471 -4.54312705 3.52969061 -6.8125 3.8125 C-8.70935547 4.03873047 -8.70935547 4.03873047 -10.64453125 4.26953125 C-13.91525811 4.98155211 -15.058842 5.36608673 -17 8 C-17.66 7.67 -18.32 7.34 -19 7 C-14.06953267 1.04235198 -7.53925017 -0.61544899 0 0 Z " fill="#C4CF6E" transform="translate(331,95)"/>
<path d="M0 0 C4.875 3.625 4.875 3.625 6 7 C6.06970052 9.39490986 6.08448003 11.79167691 6.0625 14.1875 C6.05347656 15.45980469 6.04445312 16.73210938 6.03515625 18.04296875 C6.02355469 19.01878906 6.01195312 19.99460937 6 21 C5.34 21 4.68 21 4 21 C3.34 22.32 2.68 23.64 2 25 C2.66 19.72 3.32 14.44 4 9 C3.34 9 2.68 9 2 9 C1.34 6.03 0.68 3.06 0 0 Z " fill="#BFCA66" transform="translate(231,19)"/>
<path d="M0 0 C2.440763 1.43633378 3.34732214 2.63903162 5 5 C4.21625 4.67 3.4325 4.34 2.625 4 C-4.26187387 2.10017273 -10.32360573 2.49635215 -17 5 C-17.66 4.67 -18.32 4.34 -19 4 C-13.18418125 -0.61254591 -7.25037712 -0.91851139 0 0 Z " fill="#D8E099" transform="translate(333,182)"/>
<path d="M0 0 C1.08152344 0.01417969 2.16304688 0.02835938 3.27734375 0.04296875 C4.90349609 0.05263672 4.90349609 0.05263672 6.5625 0.0625 C9.21484375 0.23046875 9.21484375 0.23046875 10.21484375 1.23046875 C10.25577312 3.56344308 10.25726098 5.897521 10.21484375 8.23046875 C9.55484375 8.23046875 8.89484375 8.23046875 8.21484375 8.23046875 C7.88484375 8.89046875 7.55484375 9.55046875 7.21484375 10.23046875 C6.88484375 7.59046875 6.55484375 4.95046875 6.21484375 2.23046875 C2.58484375 2.23046875 -1.04515625 2.23046875 -4.78515625 2.23046875 C-2.78515625 0.23046875 -2.78515625 0.23046875 0 0 Z " fill="#407977" transform="translate(314.78515625,153.76953125)"/>
<path d="M0 0 C0.66 0 1.32 0 2 0 C1.55915368 5.51057896 0.19780257 8.54245702 -3 13 C-3.67349161 14.66392045 -4.3409159 16.33032028 -5 18 C-5.95824253 19.36365283 -6.94721175 20.70794169 -8 22 C-8.33 20.35 -8.66 18.7 -9 17 C-7.68 16.67 -6.36 16.34 -5 16 C-5.226875 15.278125 -5.45375 14.55625 -5.6875 13.8125 C-6 11 -6 11 -4.75 8.1875 C-4.1725 7.465625 -3.595 6.74375 -3 6 C-2.01 6 -1.02 6 0 6 C0 4.02 0 2.04 0 0 Z " fill="#3C7A75" transform="translate(365,295)"/>
<path d="M0 0 C0.75539062 0.32742188 1.51078125 0.65484375 2.2890625 0.9921875 C7.36284449 2.37011987 12.14557348 2.21271941 17.375 2.125 C18.39722656 2.11597656 19.41945312 2.10695313 20.47265625 2.09765625 C22.98201522 2.0742043 25.49088336 2.04138355 28 2 C27.01 2.33 26.02 2.66 25 3 C25 3.66 25 4.32 25 5 C7.72088627 5.56618455 7.72088627 5.56618455 1 2 C0.67 1.34 0.34 0.68 0 0 Z " fill="#A9CAC7" transform="translate(217,290)"/>
<path d="M0 0 C0.66 0.33 1.32 0.66 2 1 C3.1577506 4.47325181 3.06866652 7.36067448 3 11 C-11.87206266 11.75195822 -11.87206266 11.75195822 -19 7 C-19.33 6.34 -19.66 5.68 -20 5 C-17.36 5.33 -14.72 5.66 -12 6 C-12 6.99 -12 7.98 -12 9 C-7.71 9.33 -3.42 9.66 1 10 C0.505 5.05 0.505 5.05 0 0 Z " fill="#4D8383" transform="translate(82,116)"/>
<path d="M0 0 C2.875 -0.1875 2.875 -0.1875 6 0 C8.35119399 3.52679099 8.21443452 5.02879485 8.125 9.1875 C8.10695313 10.27417969 8.08890625 11.36085938 8.0703125 12.48046875 C8.03550781 13.72763672 8.03550781 13.72763672 8 15 C7.01 15.33 6.02 15.66 5 16 C4.67 11.38 4.34 6.76 4 2 C2.35 2 0.7 2 -1 2 C-0.67 1.34 -0.34 0.68 0 0 Z " fill="#1D6460" transform="translate(266,32)"/>
<path d="M0 0 C0.99 0.66 1.98 1.32 3 2 C-1.75 6 -1.75 6 -4 6 C-4.33 6.99 -4.66 7.98 -5 9 C-7.8125 10.5625 -7.8125 10.5625 -11 12 C-11.78375 12.391875 -12.5675 12.78375 -13.375 13.1875 C-13.91125 13.455625 -14.4475 13.72375 -15 14 C-15 13.01 -15 12.02 -15 11 C-12 9 -12 9 -9 9 C-8.67 8.01 -8.34 7.02 -8 6 C-6.824375 5.87625 -6.824375 5.87625 -5.625 5.75 C-2.86319488 5.27785697 -2.86319488 5.27785697 -1.75 3 C-1.5025 2.34 -1.255 1.68 -1 1 C-0.67 0.67 -0.34 0.34 0 0 Z " fill="#1B605B" transform="translate(256,409)"/>
<path d="M0 0 C0.99 0.33 1.98 0.66 3 1 C3 1.66 3 2.32 3 3 C3.66 3 4.32 3 5 3 C5 3.66 5 4.32 5 5 C6.65 5.33 8.3 5.66 10 6 C10 6.99 10 7.98 10 9 C10.66 9.33 11.32 9.66 12 10 C13.125 12.0625 13.125 12.0625 14 14 C9.71657993 13.52406444 7.84426611 11.05238315 5 8 C4.071875 7.13375 3.14375 6.2675 2.1875 5.375 C0 3 0 3 0 0 Z " fill="#346F6D" transform="translate(121,374)"/>
<path d="M0 0 C0.53625 0.226875 1.0725 0.45375 1.625 0.6875 C-0.355 1.0175 -2.335 1.3475 -4.375 1.6875 C-4.375 2.3475 -4.375 3.0075 -4.375 3.6875 C-5.64191507 4.36158308 -6.91370749 5.02650497 -8.1875 5.6875 C-8.89519531 6.05875 -9.60289062 6.43 -10.33203125 6.8125 C-12.375 7.6875 -12.375 7.6875 -15.375 7.6875 C-15.375 8.6775 -15.375 9.6675 -15.375 10.6875 C-18.84807692 12.79615385 -18.84807692 12.79615385 -21.515625 12.24609375 C-22.43601563 11.96958984 -22.43601563 11.96958984 -23.375 11.6875 C-14.14948747 4.98362756 -14.14948747 4.98362756 -8.375 4.6875 C-8.375 4.0275 -8.375 3.3675 -8.375 2.6875 C-2.95961538 -0.38942308 -2.95961538 -0.38942308 0 0 Z " fill="#6E9A99" transform="translate(276.375,143.3125)"/>
<path d="M0 0 C0 0.66 0 1.32 0 2 C-0.66 2 -1.32 2 -2 2 C-2.226875 2.5775 -2.45375 3.155 -2.6875 3.75 C-4.34848222 6.59739809 -6.31524561 8.12067193 -9 10 C-9.66 10 -10.32 10 -11 10 C-11.99 10.495 -11.99 10.495 -13 11 C-11.61369489 7.89797074 -9.99905084 5.67588601 -7.625 3.25 C-7.03976562 2.63640625 -6.45453125 2.0228125 -5.8515625 1.390625 C-4 0 -4 0 0 0 Z " fill="#3D7979" transform="translate(310,156)"/>
<path d="M0 0 C0.99 1.485 0.99 1.485 2 3 C1.401875 2.690625 0.80375 2.38125 0.1875 2.0625 C-4.14215427 -0.04047493 -7.59841691 -0.13438425 -12.375 -0.125 C-13.68210937 -0.12757813 -14.98921875 -0.13015625 -16.3359375 -0.1328125 C-19.38015313 -0.0224678 -22.05205898 0.28293326 -25 1 C-23.22208888 -1.27177532 -22.14569764 -1.96272851 -19.3125 -2.6875 C-11.81558851 -3.3947558 -6.84480929 -3.18637674 0 0 Z " fill="#94B8B7" transform="translate(114,325)"/>
<path d="M0 0 C0.66 0.33 1.32 0.66 2 1 C0.60186993 4.37881434 -0.82887791 6.15017878 -4 8 C-8.67432887 9.16858222 -13.21447406 9.08250907 -18 9 C-18 8.34 -18 7.68 -18 7 C-15.32752505 6.14480802 -13.41751847 6.02118115 -10.5625 6.125 C-6.68728782 5.98902764 -5.13443764 5.14932867 -2 3 C-1.34 3 -0.68 3 0 3 C0 2.01 0 1.02 0 0 Z " fill="#175D57" transform="translate(403,202)"/>
<path d="M0 0 C0.33 0.99 0.66 1.98 1 3 C-0.32 2.67 -1.64 2.34 -3 2 C-3 1.34 -3 0.68 -3 0 C-4.41655793 -0.0272415 -5.83327045 -0.04650467 -7.25 -0.0625 C-8.03890625 -0.07410156 -8.8278125 -0.08570313 -9.640625 -0.09765625 C-11.90691002 -0.00385306 -13.8288895 0.36758937 -16 1 C-16 0.34 -16 -0.32 -16 -1 C-17.98 -1 -19.96 -1 -22 -1 C-22 -1.33 -22 -1.66 -22 -2 C-14.16127158 -4.02289766 -7.26987765 -3.50511958 0 0 Z " fill="#B3C146" transform="translate(66,174)"/>
<path d="M0 0 C0.66 0 1.32 0 2 0 C2 1.65 2 3.3 2 5 C1.34 5 0.68 5 0 5 C0 5.66 0 6.32 0 7 C1.32 7 2.64 7 4 7 C4 7.66 4 8.32 4 9 C1.36 9 -1.28 9 -4 9 C-4.33 7.35 -4.66 5.7 -5 4 C-4.360625 3.71125 -3.72125 3.4225 -3.0625 3.125 C-0.84793921 2.17176549 -0.84793921 2.17176549 0 0 Z " fill="#A9B919" transform="translate(160,200)"/>
<path d="M0 0 C3.93673644 1.31224548 6.22719294 2.91910327 9 6 C8.01 6.33 7.02 6.66 6 7 C5.67 8.98 5.34 10.96 5 13 C2.2946129 8.94191935 0 4.95110601 0 0 Z " fill="#346E6D" transform="translate(171,141)"/>
<path d="M0 0 C1.32 0.66 2.64 1.32 4 2 C4.02692484 4.29160319 4.04636124 6.58329546 4.0625 8.875 C4.07410156 10.15117188 4.08570312 11.42734375 4.09765625 12.7421875 C4 16 4 16 3 18 C0.36 18 -2.28 18 -5 18 C-5 17.67 -5 17.34 -5 17 C-2.69 17 -0.38 17 2 17 C1.85848172 14.9163691 1.71162064 12.83310062 1.5625 10.75 C1.48128906 9.58984375 1.40007812 8.4296875 1.31640625 7.234375 C1.06752213 4.69022624 0.71885058 2.44046752 0 0 Z " fill="#E8EEBB" transform="translate(113,106)"/>
<path d="M0 0 C2.125 0.9375 2.125 0.9375 4 2 C0.89808976 4.71417146 -2.25642957 5.94892137 -6.09765625 7.25390625 C-8.27606616 8.03049552 -8.27606616 8.03049552 -11 10 C-10.42655063 7.13275314 -10.1385485 6.1385485 -8 4 C-5.375 3.875 -5.375 3.875 -3 4 C-2.67 3.01 -2.34 2.02 -2 1 C-1.34 0.67 -0.68 0.34 0 0 Z " fill="#30746F" transform="translate(234,361)"/>
<path d="M0 0 C-0.79664063 0.19335938 -1.59328125 0.38671875 -2.4140625 0.5859375 C-8.88913398 2.15786014 -8.88913398 2.15786014 -15.25 4.125 C-18.82995087 5.26407528 -22.26473176 5.61359294 -26 6 C-22.99382731 2.99382731 -20.17618402 3.40414684 -16 3 C-16 2.34 -16 1.68 -16 1 C-14.0852312 0.63571223 -12.16807707 0.28394694 -10.25 -0.0625 C-9.18265625 -0.25972656 -8.1153125 -0.45695313 -7.015625 -0.66015625 C-4.25228095 -0.97156937 -2.59053383 -0.8991416 0 0 Z " fill="#B2D0CF" transform="translate(332,142)"/>
<path d="M0 0 C-1.33333333 4 -2.66666667 8 -4 12 C-4.33 12 -4.66 12 -5 12 C-5.33 9.69 -5.66 7.38 -6 5 C-7.65 5.66 -9.3 6.32 -11 7 C-10.34 6.01 -9.68 5.02 -9 4 C-8.34 4 -7.68 4 -7 4 C-7 3.34 -7 2.68 -7 2 C-2.25 0 -2.25 0 0 0 Z " fill="#306A68" transform="translate(251,141)"/>
<path d="M0 0 C2.64 0 5.28 0 8 0 C8.33 1.65 8.66 3.3 9 5 C3.72 5 -1.56 5 -7 5 C-7 4.67 -7 4.34 -7 4 C-3.04 3.34 0.92 2.68 5 2 C3.35 1.67 1.7 1.34 0 1 C0 0.67 0 0.34 0 0 Z " fill="#B3CFCC" transform="translate(339,136)"/>
<path d="M0 0 C0 0.99 0 1.98 0 3 C0.66 3.33 1.32 3.66 2 4 C2 4.66 2 5.32 2 6 C0.68 6.33 -0.64 6.66 -2 7 C-2.33 6.01 -2.66 5.02 -3 4 C-3.86625 4.45375 -4.7325 4.9075 -5.625 5.375 C-8.71476907 6.86266659 -11.72930848 7.9876431 -15 9 C-13.73083275 6.46166551 -12.58375191 6.10599099 -10.0625 4.875 C-9.35222656 4.52179688 -8.64195312 4.16859375 -7.91015625 3.8046875 C-6 3 -6 3 -4 3 C-4 2.34 -4 1.68 -4 1 C-2 0 -2 0 0 0 Z " fill="#BFD3D1" transform="translate(229,328)"/>
<path d="M0 0 C2.97 0.495 2.97 0.495 6 1 C6 1.66 6 2.32 6 3 C9.60993172 4.13480527 12.9842327 4.10015767 16.75 4.0625 C17.92046875 4.05347656 19.0909375 4.04445312 20.296875 4.03515625 C21.18890625 4.02355469 22.0809375 4.01195312 23 4 C23 4.66 23 5.32 23 6 C17.39 6 11.78 6 6 6 C6 5.34 6 4.68 6 4 C5.38125 3.896875 4.7625 3.79375 4.125 3.6875 C2 3 2 3 0 0 Z " fill="#6B9998" transform="translate(19,207)"/>
<path d="M0 0 C0.66 0.33 1.32 0.66 2 1 C2.55353075 14.6332574 2.55353075 14.6332574 -1 21 C-1.99443769 18.01668694 -2.02452065 16.79161241 -1.66015625 13.76953125 C-1.56669922 12.96708984 -1.47324219 12.16464844 -1.37695312 11.33789062 C-1.27318359 10.50451172 -1.16941406 9.67113281 -1.0625 8.8125 C-0.96259766 7.96751953 -0.86269531 7.12253906 -0.75976562 6.25195312 C-0.51242892 4.16725803 -0.25698959 2.08352716 0 0 Z " fill="#CAD384" transform="translate(220,82)"/>
<path d="M0 0 C5.28 0 10.56 0 16 0 C16.33 0.66 16.66 1.32 17 2 C9.57142857 3.28571429 9.57142857 3.28571429 6 2 C6 2.66 6 3.32 6 4 C4.68 3.67 3.36 3.34 2 3 C2.33 2.67 2.66 2.34 3 2 C2.01 1.34 1.02 0.68 0 0 Z " fill="#085D5F" transform="translate(320,137)"/>
<path d="M0 0 C5.39449293 -0.27429625 8.51925805 -0.36055646 13 3 C10.3333581 4.33332095 8.83319697 3.67102033 6 3 C6 2.34 6 1.68 6 1 C4.35 1 2.7 1 1 1 C1 6.61 1 12.22 1 18 C-1.39740646 14.40389031 -1.23987692 12.69907673 -1.1875 8.4375 C-1.18105469 7.28121094 -1.17460938 6.12492187 -1.16796875 4.93359375 C-1 2 -1 2 0 0 Z " fill="#C7D173" transform="translate(128,53)"/>
<path d="M0 0 C1.32 0 2.64 0 4 0 C4.33 0.99 4.66 1.98 5 3 C8.00847418 4.22520264 8.00847418 4.22520264 11 5 C11 5.66 11 6.32 11 7 C14.96 7.33 18.92 7.66 23 8 C23 8.33 23 8.66 23 9 C15.58871888 9.49870303 9.32111809 9.25486013 3 5 C0.9375 2.25 0.9375 2.25 0 0 Z " fill="#4A7C7B" transform="translate(103,170)"/>
<path d="M0 0 C4 0 4 0 5.75 1 C7.72537909 4.16060655 7.71578196 7.38341745 7 11 C5 13 5 13 3 14 C2.34 13.67 1.68 13.34 1 13 C1.495 12.608125 1.99 12.21625 2.5 11.8125 C4.1855802 10.07554839 4.1855802 10.07554839 4.4375 7.625 C3.86715191 4.20291143 2.30851648 2.52493989 0 0 Z " fill="#E8EBB9" transform="translate(66,175)"/>
<path d="M0 0 C0.33 0.99 0.66 1.98 1 3 C-0.41027446 4.46451579 -1.82848796 5.9213893 -3.25 7.375 C-4.03890625 8.18710938 -4.8278125 8.99921875 -5.640625 9.8359375 C-7.73379455 11.75583143 -9.40397179 12.91633685 -12 14 C-10.41332422 10.09714233 -7.86649519 7.66479018 -4.875 4.75 C-3.96492188 3.85796875 -3.05484375 2.9659375 -2.1171875 2.046875 C-1.41851562 1.37140625 -0.71984375 0.6959375 0 0 Z " fill="#CADFDE" transform="translate(267,169)"/>
<path d="M0 0 C0.66 0.33 1.32 0.66 2 1 C1.01 2.485 1.01 2.485 0 4 C-0.99 4 -1.98 4 -3 4 C-3 4.99 -3 5.98 -3 7 C-7 8.33333333 -11 9.66666667 -15 11 C-13.64032725 8.2806545 -11.57651909 7.57239143 -8.98828125 6.15234375 C-5.82759116 4.32050961 -2.94252668 2.16185633 0 0 Z " fill="#5C8C89" transform="translate(267,278)"/>
<path d="M0 0 C3.48221175 0.17411059 5.65214817 0.68551124 8.75 2.1875 C5.99921116 3.10442961 4.39051087 3.29636083 1.5625 3.25 C-0.3246875 3.2190625 -0.3246875 3.2190625 -2.25 3.1875 C-2.25 6.8175 -2.25 10.4475 -2.25 14.1875 C-4.43841354 10.90487969 -4.49854665 9.86959102 -4.4375 6.0625 C-4.43105469 5.17304687 -4.42460938 4.28359375 -4.41796875 3.3671875 C-4.14652923 -0.15521371 -3.64609019 0.21035136 0 0 Z " fill="#689293" transform="translate(128.25,98.8125)"/>
<path d="M0 0 C-0.66 1.32 -1.32 2.64 -2 4 C-2.66 4 -3.32 4 -4 4 C-3.51515724 8.64586892 -3.51515724 8.64586892 -2 13 C-5.875 11.125 -5.875 11.125 -7 10 C-7.375 7.75 -7.375 7.75 -7 5 C-2.77777778 0 -2.77777778 0 0 0 Z " fill="#BDC759" transform="translate(357,175)"/>
<path d="M0 0 C0.97710937 -0.01417969 1.95421875 -0.02835938 2.9609375 -0.04296875 C5.625 0.1875 5.625 0.1875 8.625 2.1875 C4.665 2.1875 0.705 2.1875 -3.375 2.1875 C-3.375 5.4875 -3.375 8.7875 -3.375 12.1875 C-4.035 11.8575 -4.695 11.5275 -5.375 11.1875 C-5.82421875 8.9375 -5.82421875 8.9375 -6.0625 6.1875 C-6.14886719 5.28 -6.23523438 4.3725 -6.32421875 3.4375 C-6.34097656 2.695 -6.35773438 1.9525 -6.375 1.1875 C-4.64526886 -0.54223114 -2.34983037 0.01541883 0 0 Z " fill="#588B88" transform="translate(103.375,153.8125)"/>
<path d="M0 0 C0.33 0 0.66 0 1 0 C1.56347318 14.06596021 1.56347318 14.06596021 -2 19 C-2.66 19.33 -3.32 19.66 -4 20 C-4 18.35 -4 16.7 -4 15 C-3.34 15 -2.68 15 -2 15 C-1.34 10.05 -0.68 5.1 0 0 Z " fill="#4C8281" transform="translate(296,100)"/>
<path d="M0 0 C0 0.66 0 1.32 0 2 C-0.66 2 -1.32 2 -2 2 C-2 2.66 -2 3.32 -2 4 C-2.99 4.33 -3.98 4.66 -5 5 C-6.20882096 7.00016466 -6.20882096 7.00016466 -7 9 C-7.66 9 -8.32 9 -9 9 C-9.33 10.32 -9.66 11.64 -10 13 C-10.99 12.67 -11.98 12.34 -13 12 C-12.34 11.67 -11.68 11.34 -11 11 C-10.54625 10.030625 -10.0925 9.06125 -9.625 8.0625 C-7.96186478 4.92812978 -7.25976906 4.1240583 -4 3 C-4 2.34 -4 1.68 -4 1 C-2 0 -2 0 0 0 Z " fill="#BCD3D2" transform="translate(185,355)"/>
<path d="M0 0 C0.66 0.33 1.32 0.66 2 1 C1.43410156 1.51949219 0.86820313 2.03898438 0.28515625 2.57421875 C-0.44832031 3.27160156 -1.18179688 3.96898437 -1.9375 4.6875 C-2.66839844 5.37199219 -3.39929688 6.05648437 -4.15234375 6.76171875 C-6.19429843 9.23537632 -6.65249999 10.85043641 -7 14 C-8.65 14.33 -10.3 14.66 -12 15 C-10.42921185 11.31766057 -8.13566869 8.74453885 -5.4375 5.8125 C-4.63183594 4.93207031 -3.82617188 4.05164063 -2.99609375 3.14453125 C-1 1 -1 1 0 0 Z " fill="#63918F" transform="translate(238,148)"/>
<path d="M0 0 C0.33 0 0.66 0 1 0 C1 5.61 1 11.22 1 17 C0.34 16.67 -0.32 16.34 -1 16 C-1.4140625 13.71484375 -1.4140625 13.71484375 -1.625 10.9375 C-1.69976562 10.01839844 -1.77453125 9.09929687 -1.8515625 8.15234375 C-1.90054688 7.44207031 -1.94953125 6.73179688 -2 6 C-1.34 6 -0.68 6 0 6 C0 4.02 0 2.04 0 0 Z " fill="#E6ECB7" transform="translate(200,83)"/>
<path d="M0 0 C0.33 1.65 0.66 3.3 1 5 C0.34 4.67 -0.32 4.34 -1 4 C-1 3.34 -1 2.68 -1 2 C-2.41805831 2.28482368 -3.83440379 2.57818144 -5.25 2.875 C-6.43335938 3.11863281 -6.43335938 3.11863281 -7.640625 3.3671875 C-9.96831144 3.99150075 -11.89031952 4.84838542 -14 6 C-10.68455122 0.65844364 -6.17802071 -1.99877141 0 0 Z " fill="#749E9D" transform="translate(273,30)"/>
<path d="M0 0 C2.31 0.33 4.62 0.66 7 1 C7.33 1.99 7.66 2.98 8 4 C8.99 4 9.98 4 11 4 C11.66 5.65 12.32 7.3 13 9 C9.91220974 7.53400783 7.09532795 5.82973607 4.25 3.9375 C3.45078125 3.41027344 2.6515625 2.88304687 1.828125 2.33984375 C1.22484375 1.89769531 0.6215625 1.45554687 0 1 C0 0.67 0 0.34 0 0 Z " fill="#397573" transform="translate(169,415)"/>
<path d="M0 0 C3.54000822 3.06800712 4.54158015 5.62474045 6 10 C6.99 10.33 7.98 10.66 9 11 C9.33 11.99 9.66 12.98 10 14 C7.62263514 13.60968637 6.29524226 13.28887585 4.55078125 11.58203125 C1.85836572 7.73451 0.35223932 4.81393734 0 0 Z " fill="#B0BC46" transform="translate(141,191)"/>
<path d="M0 0 C2.64 0.66 5.28 1.32 8 2 C8.12375 2.804375 8.2475 3.60875 8.375 4.4375 C8.58125 5.283125 8.7875 6.12875 9 7 C9.66 7.33 10.32 7.66 11 8 C11.625 11.0625 11.625 11.0625 12 14 C11.34 13.67 10.68 13.34 10 13 C10 11.68 10 10.36 10 9 C9.01 8.67 8.02 8.34 7 8 C4.26185953 5.46221127 2.07404293 3.1110644 0 0 Z " fill="#E1E6AF" transform="translate(153,184)"/>
<path d="M0 0 C2.475 0.99 2.475 0.99 5 2 C4.8125 4.3125 4.8125 4.3125 4 7 C1.4375 8.8125 1.4375 8.8125 -1 10 C-1 9.34 -1 8.68 -1 8 C-1.66 7.67 -2.32 7.34 -3 7 C-2.01 6.34 -1.02 5.68 0 5 C0.66 5.33 1.32 5.66 2 6 C2 4.68 2 3.36 2 2 C1.34 2 0.68 2 0 2 C0 1.34 0 0.68 0 0 Z " fill="#B6C352" transform="translate(379,174)"/>
<path d="M0 0 C-1.44424635 3.23861303 -3.25772247 5.61969163 -5.625 8.25 C-6.25664062 8.95640625 -6.88828125 9.6628125 -7.5390625 10.390625 C-8.02117187 10.92171875 -8.50328125 11.4528125 -9 12 C-9.73828125 10.265625 -9.73828125 10.265625 -10 8 C-8.41796875 5.859375 -8.41796875 5.859375 -6.1875 3.75 C-5.09501953 2.69039063 -5.09501953 2.69039063 -3.98046875 1.609375 C-2 0 -2 0 0 0 Z " fill="#22625F" transform="translate(340,337)"/>
<path d="M0 0 C0.66 0.33 1.32 0.66 2 1 C1.60196439 3.88575819 1.20990931 4.82189513 -1.0625 6.75 C-1.701875 7.1625 -2.34125 7.575 -3 8 C-3.99 7.34 -4.98 6.68 -6 6 C-4.02 4.02 -2.04 2.04 0 0 Z " fill="#3A7575" transform="translate(73,224)"/>
<path d="M0 0 C-3.3 2.31 -6.6 4.62 -10 7 C-10.66 6.67 -11.32 6.34 -12 6 C-4.8 -1.6 -4.8 -1.6 0 0 Z " fill="#0E5A57" transform="translate(88,219)"/>
<path d="M0 0 C2.00720923 0.28674418 4.0085944 0.61866701 6 1 C6.33 2.32 6.66 3.64 7 5 C7.66 5 8.32 5 9 5 C9 5.66 9 6.32 9 7 C4.56909529 5.79157144 2.01887244 4.48331435 -1 1 C-0.67 0.67 -0.34 0.34 0 0 Z " fill="#377672" transform="translate(135,154)"/>
<path d="M0 0 C0.33 0 0.66 0 1 0 C1.31806054 7.7276932 1.32270836 13.93924474 -2 21 C-3.25657078 18.48685843 -2.89935929 17.39615575 -2.44140625 14.6484375 C-2.30283203 13.79765625 -2.16425781 12.946875 -2.02148438 12.0703125 C-1.87001953 11.18085937 -1.71855469 10.29140625 -1.5625 9.375 C-1.41490234 8.4778125 -1.26730469 7.580625 -1.11523438 6.65625 C-0.7492093 4.43648503 -0.37723608 2.21788256 0 0 Z " fill="#B8C556" transform="translate(257,97)"/>
<path d="M0 0 C-0.25561323 2.3431213 -0.59270772 4.67843403 -1 7 C-1.99 7.495 -1.99 7.495 -3 8 C-3 5.69 -3 3.38 -3 1 C-5.31 2.32 -7.62 3.64 -10 5 C-8.20177069 -0.39468792 -5.09771267 -0.22656501 0 0 Z " fill="#095C57" transform="translate(296,101)"/>
<path d="M0 0 C-0.55774272 3.23490776 -1.37211508 4.97855006 -4 7 C-4.99 7 -5.98 7 -7 7 C-7.33 7.99 -7.66 8.98 -8 10 C-8.33 9.34 -8.66 8.68 -9 8 C-7.70948419 4.12845257 -4.40863591 0 0 0 Z " fill="#B8C54F" transform="translate(283,56)"/>
<path d="M0 0 C0 0.99 0 1.98 0 3 C-2.9063515 5.80255323 -3.78825048 6 -8 6 C-7.1875 3.5625 -7.1875 3.5625 -6 1 C-3 0 -3 0 0 0 Z " fill="#276A67" transform="translate(185,57)"/>
<path d="M0 0 C0 3 0 3 -2 6 C-2.45601261 8.50896686 -2.45601261 8.50896686 -2.625 11.1875 C-2.69976562 12.08855469 -2.77453125 12.98960938 -2.8515625 13.91796875 C-2.90054688 14.60503906 -2.94953125 15.29210938 -3 16 C-5.37040308 13.62959692 -5.34465793 12.93697247 -5.4375 9.6875 C-5.38085366 5.78519677 -5.11887426 5.14562097 -2.5 1.9375 C-1.2625 0.9784375 -1.2625 0.9784375 0 0 Z " fill="#F1F5D0" transform="translate(220,26)"/>
<path d="M0 0 C3.22794583 3.08760036 3.98112279 4.24340153 4.09765625 8.9140625 C4.09100226 10.48440463 4.07906939 12.05473119 4.0625 13.625 C4.05798828 14.42679688 4.05347656 15.22859375 4.04882812 16.0546875 C4.03703168 18.03649006 4.01909605 20.01825433 4 22 C3.67 22 3.34 22 3 22 C3 17.05 3 12.1 3 7 C2.34 7 1.68 7 1 7 C0.67 4.69 0.34 2.38 0 0 Z " fill="#BEC965" transform="translate(186,109)"/>
<path d="M0 0 C0.66 1.32 1.32 2.64 2 4 C0.3603125 3.9071875 0.3603125 3.9071875 -1.3125 3.8125 C-4.87406782 3.65801523 -4.87406782 3.65801523 -6.8125 5.3125 C-7.89991036 6.85776736 -8.95187897 8.42781846 -10 10 C-9.69481346 6.43949035 -8.99971192 4.99964963 -6.6875 2.1875 C-4 0 -4 0 0 0 Z " fill="#C4CE70" transform="translate(213,71)"/>
<path d="M0 0 C3.63 0.33 7.26 0.66 11 1 C11 1.33 11 1.66 11 2 C9.39935157 2.53154742 7.79431126 3.04988353 6.1875 3.5625 C5.29417969 3.85253906 4.40085937 4.14257812 3.48046875 4.44140625 C1 5 1 5 -2 4 C-1.34 2.68 -0.68 1.36 0 0 Z " fill="#276E6C" transform="translate(305,143)"/>
<path d="M0 0 C0.33 0 0.66 0 1 0 C1.13122317 6.42993538 1.07996975 12.25322717 -2 18 C-2.054348 15.9377952 -2.09294961 13.87517184 -2.125 11.8125 C-2.14820313 10.66394531 -2.17140625 9.51539063 -2.1953125 8.33203125 C-2.00484152 5.08259628 -1.39360127 2.91339479 0 0 Z " fill="#0D5A57" transform="translate(203,131)"/>
<path d="M0 0 C2.4375 1 2.4375 1 3.75 3.5625 C4.0903125 4.7690625 4.0903125 4.7690625 4.4375 6 C0.71861761 5.49287967 -2.29704239 4.88391785 -5.5625 3 C-3.73879759 0.60039156 -3.08644033 0 0 0 Z " fill="#5F8D8C" transform="translate(239.5625,56)"/>
<path d="M0 0 C0 0.66 0 1.32 0 2 C-3.73563279 4.71682385 -7.55619192 5.86726461 -12 7 C-8.5063473 3.20689136 -5.42241937 0 0 0 Z " fill="#457E79" transform="translate(252,235)"/>
<path d="M0 0 C0.66 0.33 1.32 0.66 2 1 C1.67 1.33 1.34 1.66 1 2 C0.63239269 4.32817964 0.29758419 6.6618385 0 9 C-0.66 9 -1.32 9 -2 9 C-2 8.34 -2 7.68 -2 7 C-2.66 7 -3.32 7 -4 7 C-3.6875 4.625 -3.6875 4.625 -3 2 C-2.01 1.34 -1.02 0.68 0 0 Z " fill="#0D5A57" transform="translate(376,198)"/>
<path d="M0 0 C0.33 0.66 0.66 1.32 1 2 C0.54625 2.845625 0.0925 3.69125 -0.375 4.5625 C-2.34959508 8.73952806 -2.70605529 12.43878905 -3 17 C-3.33 17 -3.66 17 -4 17 C-4.55485582 5.26582698 -4.55485582 5.26582698 -1 1 C-0.67 0.67 -0.34 0.34 0 0 Z " fill="#8FB2B1" transform="translate(231,62)"/>
<path d="M0 0 C4.43090471 1.20842856 6.98112756 2.51668565 10 6 C5.545 5.01 5.545 5.01 1 4 C0.67 2.68 0.34 1.36 0 0 Z " fill="#437976" transform="translate(162,285)"/>
<path d="M0 0 C0.66 0.33 1.32 0.66 2 1 C2.08167446 2.41569064 2.13949698 3.83276805 2.1875 5.25 C2.22230469 6.03890625 2.25710937 6.8278125 2.29296875 7.640625 C2 10 2 10 -1 14 C-0.67 9.38 -0.34 4.76 0 0 Z " fill="#115C59" transform="translate(191,70)"/>
<path d="M0 0 C0 1.32 0 2.64 0 4 C-3.63 4.66 -7.26 5.32 -11 6 C-9.73083275 3.46166551 -8.58375191 3.10599099 -6.0625 1.875 C-5.35222656 1.52179688 -4.64195312 1.16859375 -3.91015625 0.8046875 C-2 0 -2 0 0 0 Z " fill="#62928E" transform="translate(216,386)"/>
<path d="M0 0 C0 1.32 0 2.64 0 4 C-3.3 3.01 -6.6 2.02 -10 1 C-10 0.67 -10 0.34 -10 0 C-3.375 -1.125 -3.375 -1.125 0 0 Z " fill="#468381" transform="translate(292,318)"/>
<path d="M0 0 C3.3 0 6.6 0 10 0 C7.3139714 1.79068573 5.3373411 2.66055791 2.3125 3.625 C1.50425781 3.88539063 0.69601563 4.14578125 -0.13671875 4.4140625 C-0.75160156 4.60742188 -1.36648437 4.80078125 -2 5 C-1.34 3.35 -0.68 1.7 0 0 Z " fill="#538B86" transform="translate(242,317)"/>
<path d="M0 0 C0.66 0 1.32 0 2 0 C2 2.64 2 5.28 2 8 C-2.875 6.25 -2.875 6.25 -4 4 C-2.68 4 -1.36 4 0 4 C0 2.68 0 1.36 0 0 Z " fill="#9BC2C1" transform="translate(175,154)"/>
<path d="M0 0 C3.3 0.33 6.6 0.66 10 1 C10 2.32 10 3.64 10 5 C6.42424104 5 4.94704065 3.91159393 2 2 C1.67 2.66 1.34 3.32 1 4 C0.67 2.68 0.34 1.36 0 0 Z " fill="#C3D5D2" transform="translate(169,139)"/>
<path d="M0 0 C0.66 0.33 1.32 0.66 2 1 C1.34 1.66 0.68 2.32 0 3 C0 3.99 0 4.98 0 6 C-0.99 6.66 -1.98 7.32 -3 8 C-3 7.34 -3 6.68 -3 6 C-3.66 5.67 -4.32 5.34 -5 5 C-3.35 3.35 -1.7 1.7 0 0 Z " fill="#3C7D79" transform="translate(282,102)"/>
<path d="M0 0 C2 1 2 1 3.125 3.5 C4.1889199 7.7556796 4.17434209 11.64144777 4 16 C3.67 16 3.34 16 3 16 C2.8046875 13.94921875 2.609375 11.8984375 2.4140625 9.84765625 C2.20910156 8.93306641 2.20910156 8.93306641 2 8 C1.34 7.67 0.68 7.34 0 7 C0 4.69 0 2.38 0 0 Z " fill="#457D7C" transform="translate(190,63)"/>
<path d="M0 0 C0.99 0.66 1.98 1.32 3 2 C-1.75 6 -1.75 6 -4 6 C-4.33 6.99 -4.66 7.98 -5 9 C-5.66 8.67 -6.32 8.34 -7 8 C-6.67 7.01 -6.34 6.02 -6 5 C-5.01 5 -4.02 5 -3 5 C-2.690625 4.360625 -2.38125 3.72125 -2.0625 3.0625 C-1 1 -1 1 0 0 Z " fill="#34726E" transform="translate(256,409)"/>
<path d="M0 0 C2.84383123 1.2748209 5.13754018 2.45137078 7 5 C6.6875 7.1875 6.6875 7.1875 6 9 C5.34 9 4.68 9 4 9 C3.525625 7.88625 3.05125 6.7725 2.5625 5.625 C1.74693537 3.73289006 0.92143645 1.84287291 0 0 Z " fill="#729C9B" transform="translate(225,319)"/>
<path d="M0 0 C-3 2 -3 2 -6 3 C-6.33 3.99 -6.66 4.98 -7 6 C-8.32 5.67 -9.64 5.34 -11 5 C-10.34 4.67 -9.68 4.34 -9 4 C-8.67 3.01 -8.34 2.02 -8 1 C-5.07175348 0.02391783 -3.04386724 -0.08226668 0 0 Z " fill="#0A5C58" transform="translate(368,143)"/>
<path d="M0 0 C1.4540625 0.0309375 1.4540625 0.0309375 2.9375 0.0625 C2.9375 0.3925 2.9375 0.7225 2.9375 1.0625 C1.2875 1.0625 -0.3625 1.0625 -2.0625 1.0625 C-1.7325 3.3725 -1.4025 5.6825 -1.0625 8.0625 C-2.0525 8.0625 -3.0425 8.0625 -4.0625 8.0625 C-4.10491723 5.72955225 -4.10342937 3.39547433 -4.0625 1.0625 C-3.0625 0.0625 -3.0625 0.0625 0 0 Z " fill="#125959" transform="translate(129.0625,100.9375)"/>
<path d="M0 0 C-3.37097383 1.49821059 -5.20442119 2 -9 2 C-9 2.66 -9 3.32 -9 4 C-10.65 4.33 -12.3 4.66 -14 5 C-12.19135947 1.80828142 -11.06511869 1.0248635 -7.5625 -0.3125 C-4.41462825 -0.91998402 -2.90443668 -1.16177467 0 0 Z " fill="#3A7571" transform="translate(357,106)"/>
<path d="M0 0 C1.32 0.33 2.64 0.66 4 1 C0.535 3.97 0.535 3.97 -3 7 C-3.33 6.34 -3.66 5.68 -4 5 C-2.68 3.35 -1.36 1.7 0 0 Z " fill="#BCC85B" transform="translate(241,101)"/>
<path d="M0 0 C0.66 0 1.32 0 2 0 C1.43628586 3.26954202 0.50037734 4.82575883 -2 7 C-2.99 6.67 -3.98 6.34 -5 6 C-3.625 4 -3.625 4 -2 2 C-1.34 2 -0.68 2 0 2 C0 1.34 0 0.68 0 0 Z " fill="#266763" transform="translate(308,366)"/>
<path d="M0 0 C-0.33 1.32 -0.66 2.64 -1 4 C-3.97 4.66 -6.94 5.32 -10 6 C-4 0 -4 0 0 0 Z " fill="#5C8C8C" transform="translate(200,356)"/>
<path d="M0 0 C2.97 1.65 5.94 3.3 9 5 C6 7 6 7 4 7 C4 6.01 4 5.02 4 4 C2.68 3.67 1.36 3.34 0 3 C0 2.01 0 1.02 0 0 Z " fill="#1D6660" transform="translate(128,348)"/>
<path d="M0 0 C3.96 0 7.92 0 12 0 C12 0.33 12 0.66 12 1 C11.37351562 1.02578125 10.74703125 1.0515625 10.1015625 1.078125 C9.28429687 1.13484375 8.46703125 1.1915625 7.625 1.25 C6.81289063 1.29640625 6.00078125 1.3428125 5.1640625 1.390625 C2.81161073 1.7922092 2.81161073 1.7922092 1.7109375 4.046875 C1.47632813 4.69140625 1.24171875 5.3359375 1 6 C0.67 5.67 0.34 5.34 0 5 C0 3.35 0 1.7 0 0 Z " fill="#0D5651" transform="translate(368,222)"/>
<path d="M0 0 C3.53586014 3.17320782 5.58578031 5.16743695 6 10 C3.5625 8.9375 3.5625 8.9375 1 7 C0.1875 3.3125 0.1875 3.3125 0 0 Z " fill="#578985" transform="translate(199,168)"/>
<path d="M0 0 C1.32 0 2.64 0 4 0 C4 0.66 4 1.32 4 2 C4.66 2.33 5.32 2.66 6 3 C6.33 3.66 6.66 4.32 7 5 C3.65626525 4.44271087 0.96687001 3.64826111 -2 2 C-1.34 2 -0.68 2 0 2 C0 1.34 0 0.68 0 0 Z " fill="#206866" transform="translate(113,143)"/>
<path d="M0 0 C3.25543229 0.34879632 4.01873107 1.02133261 6.25 3.5625 C6.8275 4.366875 7.405 5.17125 8 6 C6.35 5.67 4.7 5.34 3 5 C2.67 4.01 2.34 3.02 2 2 C1.34 2 0.68 2 0 2 C0 1.34 0 0.68 0 0 Z " fill="#226862" transform="translate(302,341)"/>
<path d="M0 0 C-0.33 1.65 -0.66 3.3 -1 5 C-2.32 5 -3.64 5 -5 5 C-5 4.01 -5 3.02 -5 2 C-2 0 -2 0 0 0 Z " fill="#447E79" transform="translate(214,247)"/>
<path d="M0 0 C0.66 0.33 1.32 0.66 2 1 C-1.17320782 4.53586014 -3.16743695 6.58578031 -8 7 C-6.6875 5 -6.6875 5 -5 3 C-4.01 3 -3.02 3 -2 3 C-2 2.34 -2 1.68 -2 1 C-1.34 0.67 -0.68 0.34 0 0 Z " fill="#689391" transform="translate(264,224)"/>
<path d="M0 0 C4.95696581 1.23924145 7.11658466 2.78577758 10 7 C8.35 6.67 6.7 6.34 5 6 C5 5.01 5 4.02 5 3 C3.35 3 1.7 3 0 3 C0 2.01 0 1.02 0 0 Z " fill="#38716F" transform="translate(381,222)"/>
<path d="M0 0 C0.80824219 0.10183594 1.61648438 0.20367187 2.44921875 0.30859375 C3.06410156 0.39238281 3.67898438 0.47617188 4.3125 0.5625 C1.4129339 2.22126079 -0.60385209 2.7986216 -3.9375 2.6875 C-5.79375 2.625625 -5.79375 2.625625 -7.6875 2.5625 C-7.6875 1.9025 -7.6875 1.2425 -7.6875 0.5625 C-4.59271121 -0.46909626 -3.16118607 -0.41232862 0 0 Z " fill="#075D58" transform="translate(392.6875,208.4375)"/>
<path d="M0 0 C0.99 0.33 1.98 0.66 3 1 C-0.465 3.97 -0.465 3.97 -4 7 C-4.33 6.01 -4.66 5.02 -5 4 C-2.6875 1.9375 -2.6875 1.9375 0 0 Z " fill="#1E6662" transform="translate(287,123)"/>
<path d="M0 0 C1.8125 0.125 1.8125 0.125 4 1 C5.75 4.0625 5.75 4.0625 7 7 C5.35 6.67 3.7 6.34 2 6 C1.34 4.02 0.68 2.04 0 0 Z " fill="#4C7E7D" transform="translate(75,108)"/>
<path d="M0 0 C0 3.6860549 -0.68858396 5.14925356 -3 8 C-6.1875 8.3125 -6.1875 8.3125 -9 8 C-8.67 7.34 -8.34 6.68 -8 6 C-6.02 6.495 -6.02 6.495 -4 7 C-3.71125 6.21625 -3.4225 5.4325 -3.125 4.625 C-2 2 -2 2 0 0 Z " fill="#E4EAB4" transform="translate(217,103)"/>
<path d="M0 0 C0.33 0 0.66 0 1 0 C1.25 2.8125 1.25 2.8125 1 6 C-1 7.875 -1 7.875 -3 9 C-3.66 8.67 -4.32 8.34 -5 8 C-4.19185349 6.66402348 -3.37836819 5.331275 -2.5625 4 C-2.11003906 3.2575 -1.65757812 2.515 -1.19140625 1.75 C-0.79824219 1.1725 -0.40507812 0.595 0 0 Z " fill="#E6EBBC" transform="translate(235,40)"/>
<path d="M0 0 C-1.24176695 0.70226141 -2.49385599 1.38629109 -3.75 2.0625 C-4.79414063 2.63677734 -4.79414063 2.63677734 -5.859375 3.22265625 C-8.36140628 4.1312406 -9.5332355 3.88336837 -12 3 C-10.5682384 2.30062798 -9.12932968 1.61587282 -7.6875 0.9375 C-6.48673828 0.36322266 -6.48673828 0.36322266 -5.26171875 -0.22265625 C-3 -1 -3 -1 0 0 Z " fill="#0D5A55" transform="translate(255,291)"/>
<path d="M0 0 C1.32 0.66 2.64 1.32 4 2 C0.04 3.98 0.04 3.98 -4 6 C-4 5.01 -4 4.02 -4 3 C-3.34 3 -2.68 3 -2 3 C-2 2.34 -2 1.68 -2 1 C-1.34 0.67 -0.68 0.34 0 0 Z " fill="#36726C" transform="translate(267,265)"/>
<path d="M0 0 C0.66 0.33 1.32 0.66 2 1 C1 4 1 4 -2.0625 5.6875 C-3.031875 6.120625 -4.00125 6.55375 -5 7 C-4.1875 4.0625 -4.1875 4.0625 -3 1 C-2.01 0.67 -1.02 0.34 0 0 Z " fill="#17605E" transform="translate(381,195)"/>
<path d="M0 0 C1.33332095 2.6666419 0.67102033 4.16680303 0 7 C-1.32 7.33 -2.64 7.66 -4 8 C-4 6.35 -4 4.7 -4 3 C-3.01 3.33 -2.02 3.66 -1 4 C-0.67 2.68 -0.34 1.36 0 0 Z " fill="#6EA09E" transform="translate(213,185)"/>
<path d="M0 0 C0.99 0 1.98 0 3 0 C2.67 1.65 2.34 3.3 2 5 C1.01 5.33 0.02 5.66 -1 6 C-1.042721 4.33388095 -1.04063832 2.66617115 -1 1 C-0.67 0.67 -0.34 0.34 0 0 Z " fill="#0A5D58" transform="translate(177,147)"/>
<path d="M0 0 C0 0.99 0 1.98 0 3 C-3.33333333 6 -3.33333333 6 -6 6 C-5.6875 4.125 -5.6875 4.125 -5 2 C-2 0 -2 0 0 0 Z " fill="#1D6561" transform="translate(47,236)"/>
<path d="M0 0 C0.66 0 1.32 0 2 0 C2.33 1.65 2.66 3.3 3 5 C0.69 5.33 -1.62 5.66 -4 6 C-3.34 5.01 -2.68 4.02 -2 3 C-1.34 3 -0.68 3 0 3 C0 2.01 0 1.02 0 0 Z " fill="#CCDDDD" transform="translate(406,202)"/>
<path d="M0 0 C1.98 0.99 3.96 1.98 6 3 C6 3.66 6 4.32 6 5 C7.32 5.33 8.64 5.66 10 6 C8.35 6 6.7 6 5 6 C5 5.34 5 4.68 5 4 C3.02 4 1.04 4 -1 4 C-0.67 2.68 -0.34 1.36 0 0 Z " fill="#F2F4D3" transform="translate(350,185)"/>
<path d="M0 0 C1.32 0 2.64 0 4 0 C4 0.66 4 1.32 4 2 C4.66 2 5.32 2 6 2 C6 3.32 6 4.64 6 6 C2.26360784 4.75453595 1.81243487 3.36595047 0 0 Z " fill="#A8BA17" transform="translate(375,174)"/>
<path d="M0 0 C1.65 0 3.3 0 5 0 C3.71937515 1.7074998 2.38232443 3.37373596 1 5 C0.34 5 -0.32 5 -1 5 C-0.67 3.35 -0.34 1.7 0 0 Z " fill="#115C5B" transform="translate(100,155)"/>
<path d="M0 0 C2.5625 0.25 2.5625 0.25 5 1 C5.33 1.66 5.66 2.32 6 3 C3.125 3.625 3.125 3.625 0 4 C-0.66 3.34 -1.32 2.68 -2 2 C-1.34 1.34 -0.68 0.68 0 0 Z " fill="#448079" transform="translate(209,120)"/>
<path d="M0 0 C3.96 1.98 3.96 1.98 8 4 C8 4.99 8 5.98 8 7 C4.66272214 5.82744291 2.22562513 4.81131596 0 2 C0 1.34 0 0.68 0 0 Z " fill="#C7D073" transform="translate(93,113)"/>
<path d="M0 0 C0.33 1.32 0.66 2.64 1 4 C-0.65 5.32 -2.3 6.64 -4 8 C-4.66 7.67 -5.32 7.34 -6 7 C-4.625 5 -4.625 5 -3 3 C-2.34 3 -1.68 3 -1 3 C-0.67 2.01 -0.34 1.02 0 0 Z " fill="#E4E9AF" transform="translate(329,111)"/>
<path d="M0 0 C1.8125 0.1875 1.8125 0.1875 4 1 C5.75 3.5625 5.75 3.5625 7 6 C6.01 6 5.02 6 4 6 C1.8125 3 1.8125 3 0 0 Z " fill="#1E645F" transform="translate(315,338)"/>
<path d="M0 0 C2.4375 0.125 2.4375 0.125 5 1 C6.3125 3.5625 6.3125 3.5625 7 6 C4.525 5.01 4.525 5.01 2 4 C2.33 3.34 2.66 2.68 3 2 C1.68 1.67 0.36 1.34 -1 1 C-0.67 0.67 -0.34 0.34 0 0 Z " fill="#3C736E" transform="translate(209,286)"/>
<path d="M0 0 C3.26460973 1.80412643 4.88929795 2.83394693 7 6 C4.625 5.8125 4.625 5.8125 2 5 C0.6875 2.4375 0.6875 2.4375 0 0 Z " fill="#286867" transform="translate(43,196)"/>
<path d="M0 0 C-2.63904371 1.41377341 -5.07120629 2.37240135 -8 3 C-8 2.01 -8 1.02 -8 0 C-4.71023192 -1.09658936 -3.28696233 -0.79953138 0 0 Z " fill="#ADBE2F" transform="translate(379,173)"/>
<path d="M0 0 C-0.66 1.98 -1.32 3.96 -2 6 C-2.33 5.01 -2.66 4.02 -3 3 C-4.32 3.33 -5.64 3.66 -7 4 C-7 3.34 -7 2.68 -7 2 C-2.25 0 -2.25 0 0 0 Z " fill="#52827F" transform="translate(251,141)"/>
<path d="M0 0 C0.66 0.33 1.32 0.66 2 1 C0.35 2.65 -1.3 4.3 -3 6 C-3.66 5.34 -4.32 4.68 -5 4 C-3.35 2.68 -1.7 1.36 0 0 Z " fill="#BCD4D2" transform="translate(236,426)"/>
<path d="M0 0 C2.31 0 4.62 0 7 0 C6.67 0.99 6.34 1.98 6 3 C4.35 3.33 2.7 3.66 1 4 C0.67 2.68 0.34 1.36 0 0 Z " fill="#628F8C" transform="translate(323,349)"/>
<path d="M0 0 C2.64 0 5.28 0 8 0 C5.01353231 1.99097846 2.40312738 2.94124926 -1 4 C-0.67 2.68 -0.34 1.36 0 0 Z " fill="#D6E7E6" transform="translate(246,325)"/>
<path d="M0 0 C0 0.99 0 1.98 0 3 C-2.31 3.66 -4.62 4.32 -7 5 C-2.25 0 -2.25 0 0 0 Z " fill="#4A7F7C" transform="translate(38,223)"/>
<path d="M0 0 C2.97 0.495 2.97 0.495 6 1 C5.01 2.485 5.01 2.485 4 4 C1.375 4.1875 1.375 4.1875 -1 4 C-0.67 2.68 -0.34 1.36 0 0 Z " fill="#ADBB34" transform="translate(63,185)"/>
<path d="M0 0 C1.98 0 3.96 0 6 0 C6 0.99 6 1.98 6 3 C4.02 3 2.04 3 0 3 C0 2.01 0 1.02 0 0 Z " fill="#A9BA18" transform="translate(64,183)"/>
<path d="M0 0 C0.66 0 1.32 0 2 0 C0.66666667 2.66666667 -0.66666667 5.33333333 -2 8 C-2.66 8 -3.32 8 -4 8 C-3.40312566 4.65750371 -2.26396123 2.53563658 0 0 Z " fill="#105B56" transform="translate(277,108)"/>
<path d="M0 0 C1.98 0 3.96 0 6 0 C4.875 1.5 4.875 1.5 3 3 C-0.1875 3.1875 -0.1875 3.1875 -3 3 C-2.01 2.67 -1.02 2.34 0 2 C0 1.34 0 0.68 0 0 Z " fill="#BCC85F" transform="translate(277,82)"/>
<path d="M0 0 C2 1.375 2 1.375 4 3 C4 3.66 4 4.32 4 5 C1.5 6.625 1.5 6.625 -1 8 C-0.67 5.36 -0.34 2.72 0 0 Z " fill="#B3BE41" transform="translate(143,60)"/>
</svg>
